<?xml version="1.0" encoding="UTF-8"?>
<svg id="Ebene_1" data-name="Ebene 1" xmlns="http://www.w3.org/2000/svg" viewBox="0 0 90.26 134.87">
  <defs>
    <style>
      .cls-1 {
        fill: #7c7c97;
      }
    </style>
  </defs>
  <path class="cls-1" d="m66.46,129l.32-1.24c.73-2.85,1.48-5.79,3.06-8.5.29-.5.66-.85,1.06-1.14l-2.9-1.42.68-3.31c.03-.17.05-.31.07-.43.09-.71.37-2.87,2.59-3.95,3.98-1.92,5.4-4.5,5.43-9.87.03-4.67,4.13-8.53,7.96-11.79,1.54-1.3,1.99-2.51,1.94-5.16-.01-.44-.03-.89-.06-1.34-.13-2.44-.32-6.1,1.93-9.21-1.09-.35-2.24-.66-3.42-.99-.93-.26-1.89-.53-2.85-.82-.64-.13-1.25-.31-1.77-.57-1.38-.48-2.61-1.13-3.68-1.71-.63-.34-1.25-.68-1.9-.96-1.19-.52-2.41-.96-3.62-1.41-.76-.28-1.52-.56-2.28-.86-.09-.03-.21-.07-.32-.1-1.04-.33-3.49-1.09-4.23-3.69-.38-1.36-1.68-2.67-3.18-4.19-2.55-2.58-5.94-6.01-5.84-11.5-6.22-2.84-7.88-8.56-9.12-12.83-.43-1.48-.83-2.88-1.37-4.06-3.13-6.95-1.33-13.39.26-19.06.2-.72.41-1.45.6-2.17l.13-.46c.02-.08.05-.17.07-.25-.07-.24-.1-.47-.16-.7-1.07-1.1-2.87-1.75-5.51-2.23-1.5-.27-2.98-1.38-4.39-1.24-1.41.14-2.97,1.11-4.01,2.17-1.62,1.66-2.48,4.56-4.34,5.39-3.99,1.77-4.83,5.12-6.28,8.53-2.45,5.78-5.36,11.36-8.12,17-.18.37-.73.55-1.07.87-2.84,2.69-5.61,5.47-8.53,8.07-2.56,2.26-2.71,4.08.1,6.36,2.45,1.99,3.61,4.35,1.28,7.65-2.04,2.88-1.8,6.01,1.09,8.78,1.22,1.17,2.04,3.08,2.38,4.79.71,3.64.02,7.88,1.66,10.93,2.66,4.97,6.73,9.18,11.58,15.5-.9.48-2.84.94-3.81,2.17-1.87,2.37-3.3,5.11-4.69,7.81-.78,1.53-.85,3.44-1.73,4.9-1.08,1.8-2.66,3.3-4,4.9q9.51,9.79,15.58,8.8c1.57,2.12,2.6,4.78,4.51,5.84,4.81,2.67,14.59-.27,18.79-4.29,1.86-1.78,5.12-3.46,7.43-3.11,3.55.54,6.8,2.92,10.23,4.41.74.32,1.58.77,2.39,1.11-.06-.46-.06-.92.07-1.4Z"/>
</svg>