<?xml version="1.0" encoding="UTF-8"?>
<svg id="Ebene_1" data-name="Ebene 1" xmlns="http://www.w3.org/2000/svg" viewBox="0 0 161.8 212.48">
  <defs>
    <style>
      .cls-1 {
        fill: #91798c;
      }
    </style>
  </defs>
  <path class="cls-1" d="m159.16,162.28c-2.83-1.69-2.82-1.72-.92-3.68-.54-2.85-1.38-5.14-1.33-7.42.09-4.47-1.47-8.37-3.5-12.12-1.02-1.89-1.06-3.29.6-4.7.75-.63,1.43-1.34,2.12-2.03q2.76-2.74.38-5.59c-.34-.41-.74-.85-.87-1.34-1.06-4.08-2.78-8.16-2.92-12.28-.18-5.38-2.44-8.74-7.03-10.85-1.7-.79-3.76-1.99-5.34-1.63-5.59,1.28-11.09,3.01-16.51,4.9-1.79.62-2.71.18-3.58-1.1-1.63-2.43-3.18-4.92-4.79-7.37-.92-1.4-1.87-2.77-2.86-4.23,4.49-1.6,4.43-1.67,5.28-3.21.84-1.52,1.96-2.88,2.82-4.38.35-.61.55-1.45.48-2.15-.24-2.67.71-3.97,3.4-4.31,1.76-.22,3.53-.39,5.3-.61,1.58-.2,2.77-1.14,2.04-2.67-1.43-2.99.25-3.19,2.43-3.17,1.83.01,2.28-.73,1.81-2.53-1.23-4.71-3.53-8.59-7.87-11.05-1.83-1.04-1.53-2.25-.2-3.37,2.02-1.71,2.26-3.39.94-5.82-2-3.66.81-5.81,3.09-8.15,1.55-1.59,2.9-1.2,4.55-.47,1.5.67,2.44.34,3.35-1.36,1.08-2.01.18-3.52-.83-4.59-2.01-2.13-3-4.17-.88-7.07-1.57-.4-2.7-.57-3.74-.99-.65-.27-1.36-.8-1.67-1.4-.79-1.53-1.01-3.48-2.1-4.71-2.22-2.53-2.5-5.36-2.38-8.46.04-1.11.1-2.62-.53-3.3-2.49-2.65-5.19-5.12-7.97-7.46-.71-.6-2.04-.47-3.09-.67,1.51,2.99,1.97,5.92.37,7.87-1.49,1.83-4.34,2.55-6.65,3.79,1.03,3.8.78,4.48-2.96,6.18-2.96,1.35-5.95,2.7-9.02,3.74-2.49.84-5.16,1.15-7.72,1.84-1.73.47-3.4,1.17-5.09,1.81-.57.21-1.08.63-1.66.78-4.19,1.14-7.79,3.17-9.76,7.18-.93,1.89-2.09,2.21-3.85,1.65-2.45-.78-4.7-1.07-7.13.55-3.86,2.59-7.95,4.7-7.74,10.39.04,1-1.51,2.32-2.63,2.99-.47.28-1.76-.71-2.61-1.23-.6-.37-1-1.14-1.62-1.34-.57-.18-1.38.05-1.94.36-.25.14-.33.96-.2,1.38.83,2.69,1.67,5.37,2.64,8.01.95,2.58.07,4.07-2.69,4.36-1.13.12-2.34.16-3.36.59-1.89.81-3.4.6-4.56-1.11-2.66,1.91-2.82,1.87-3.84-1.17-.63-1.88-1.42-3.02-3.63-1.71-1.2.71-2.62,1.08-3.97,1.5-1.84.58-3.61.9-5.05-1.02-.65-.87-1.68-1.45-2.64-2.24.81,2.14,1.53,4.06,2.49,6.59-1.77.46-3.32.83-4.86,1.27-.8.23-2.16.4-2.27.85-.67,2.62-2.72,3.01-4.83,3.44-2.81.58-4.45,2.47-4.52,5.33-.03,1.47-.11,2.69-1.8,3.46-.68.31-1.31.78-1.66,1.41l.56.58.22.94c.02.09.04.18.06.27l.29.92-.4,1.36c-.11.4-.22.82-.34,1.24-.83,2.97-1.61,5.75-.34,8.57.41.9.68,1.86.95,2.79.73,2.53,1.36,4.25,3.32,5.15l2.09.95-.04,2.3c-.03,1.55.91,2.62,2.34,4.07,1.03,1.04,2.08,2.11,2.6,3.57.07.02.15.05.21.07.14.04.26.08.36.12.46.18.88.33,1.29.49.8.3,1.54.57,2.26.88.43.19.84.4,1.26.63l.09.05c.58.31,1.09.58,1.61.76l.36.15h0s.07.02.21.05l.3.08c.52.16,1.04.31,1.55.45.72.2,1.43.39,2.1.61l4.59,1.47-2.81,3.91c-.57.79-.5,1.99-.45,3.06v.1c.02.26.03.51.04.77.04,1.81-.21,3.9-2.35,5.71-.99.84-3.32,2.82-3.33,4.11-.02,2.74-.53,6.09-4.16,8.28l.68.5c1.33.13,2.68.59,3.79.97,1.66.56,3.04,1.1,4.39,1.61,1.28.49,2.5.96,3.87,1.42.09-.08.18-.15.27-.22.09-.07.18-.15.27-.22,2.51-2.12,4.66-2.03,6.23-1.34.85-.49,1.71-1.01,2.6-1.55,2.38-1.44,4.84-2.92,7.57-4.04,3.11-1.27,6.32-1.99,9.42-2.69.94-.21,1.87-.42,2.8-.65,2.18-.53,4.48.59,5.63,1.96.41.49.86.84,2.93.85,1.9.01,3.51.82,4.68,1.41.2.1.39.2.58.29,1.1.52,2.12,1.09,3.3,1.74.54.3,1.12.62,1.77.97l.89.48,1.21,1.84c.06.03.12.05.18.08,1.28.51,1.27,1.03.9,1.56l2.2,3.35-1.42,2.19c-.39.6-.81,1.08-1.18,1.52-.06.07-.14.16-.21.25.77,1.6.42,3.29-1.01,5.08-.08.11-.18.21-.25.32-.03.07-.06.13-.1.2.15.24.29.47.43.7,1.47,2.39,2.04,3.05,3.24,3.18,1.06.11,1.92.45,2.55.69.14.05.27.11.4.15l2.44.79.3,2.55c.92,7.82-4.81,12.05-6.7,13.43-1.47,1.08-1.63,1.64-1.64,1.65,0,0,0,.84,2.14,3.11.35.38.59.74.74.95l1.04,1.45c.1.02.21.04.31.05,1.42.13,2.38-.38,3.8-.48,2.37-.17,3.83.51,3.58,3.23-.05.59,0,1.49.37,1.77,3.33,2.48,6.46,5.56,10.22,7.04,3.48,1.37,7.64,1.01,11.5,1.35,5.35.48,10.65.47,15.36,4.12,2.99,2.32,6.86,3.64,10.51,4.92,3.12,1.09,5.08-.13,6.42-3.24,2.67-6.18,5.29-12.39,7.93-18.58.81-1.89,1.71-3.79-1.34-5.45,2.19-1.57,3.91-3.04,5.85-4.1,1.42-.78,1.75-1.4,1.45-3.09-.64-3.54-1.48-7.32.72-10.6,1.36-2.02.76-2.99-.98-4.03Z"/>
</svg>