<?xml version="1.0" encoding="UTF-8"?>
<svg id="Ebene_1" data-name="Ebene 1" xmlns="http://www.w3.org/2000/svg" viewBox="0 0 141.16 110.07">
  <defs>
    <style>
      .cls-1 {
        fill: #ffa39a;
      }
    </style>
  </defs>
  <path class="cls-1" d="m123.38,14.43c1.01,1.53,2.94,4.47,5.04,7.67-2.11,3.26-6.88,6.03-3.34,11.36.32.49-1.76,2.38-2.42,3.77-.85,1.79-2.52,4.6-1.86,5.47,4.28,5.64,6.59,13.55,15.37,14.49,1.54.16,3.02.93,4.33,1.35,1.08,9.16-4.12,15.11-10.27,19.64-8.78,6.46-8.74,12.43-.05,21.62.35.37.61.83.9,1.23-6.55,8.44-12.73,10.47-22.65,6.92-1.7-.61-2.91-2.9-4.1-4.59-3.85-5.47-3.79-5.49-8.71-1.15-.51.45-1.12.78-2.08,1.43-.44-1.27-.84-2.2-1.09-3.17-2.6-10.09-12.55-17.66-22.98-16.87-3.26.25-6.62,1.59-9.49,3.21-1.06.6-1,3.43-1.17,5.27-.13,1.47.18,2.99.29,4.48-1.65-.06-3.36.11-4.95-.22-5.67-1.19-8.84-4.34-7.96-10.59.14-.97-.14-2.44-.8-3-7.59-6.43-9.48-16.56-15.67-23.89-.59-.69-1.13-2.36-.78-2.76,3.54-3.95.57-5.9-2.18-8.1-.95-.76-2.45-2.19-2.24-2.85,3.1-9.78-6.28-9.6-10.66-12.81-4.11-3.01-6.93-3.58-11.71-5.71-.7-.31-1.69-1.4-1.57-1.87.92-3.51,1.7-7.18,3.48-10.25.4-.68,4.67.59,7.02,1.39,7.57,2.58,12.44,4.88,20.08,7.22,1.18.36,3.23-1.69,4.71-2.86,1.98-1.57,3.59-3.67,6.39-1.01.62.58,2.72.2,3.79-.39,7.18-3.93,13.96-8.79,21.48-11.87,7.45-3.05,15.59-4.43,23.48-6.34.95-.23,2.59.49,3.27,1.3,3.21,3.84,7.3,4.58,12.04,4.6,2.41.01,4.87,1.54,7.19,2.64,2.93,1.39,5.74,3.05,9.85,5.27Z"/>
</svg>