<?xml version="1.0" encoding="UTF-8"?>
<svg id="Ebene_1" data-name="Ebene 1" xmlns="http://www.w3.org/2000/svg" viewBox="0 0 215.74 146.09">
  <defs>
    <style>
      .cls-1 {
        fill: #ffba9d;
      }
    </style>
  </defs>
  <path class="cls-1" d="m168.54,143.56l.56-.67c.26-.31.54-.62.82-.93.4-.44.77-.86,1-1.2.04-.13.07-.27.11-.41.1-.37.23-.84.42-1.35.05-.69.34-1.47.77-1.95.12-.13.25-.25.37-.38.51-.95,1.09-1.96,1.79-2.95-1.66-2.05-3.11-3.87-4.27-6.04-1.07-1.99-1.17-4.07-1.25-5.74-.03-.68-.06-1.33-.15-1.79-.04-.19-.11-.36-.15-.45-2.83-2.77-3.45-6.48-1.73-9.75-1.36-1.34-2.06-2.86-2.1-4.52-.04-1.94.85-3.73,2.64-5.32.43-.38.85-.77,1.27-1.16.33-.38.69-.74,1.1-1.04.26-.25.52-.5.79-.76.54-.52,1.08-1.04,1.62-1.56.03-.03.06-.06.1-.09.25-.52.51-1.03.77-1.54,1.21-2.44,2.35-4.73,3.36-7.1.1-.23.19-.46.28-.69.74-1.84,1.83-4.56,4.96-6.23.06-.09.12-.19.17-.28.31-.52.7-1.13,1.22-1.75.54-1.8,1.5-2.6,3.08-2.33.69-.32,1.48-.58,2.36-.67,1.6-.16,2.87.36,3.63.68.09.04.17.07.26.11.71.13,1.49.32,2.28.6.64-.27,1.29-.6,1.96-.94,1.04-.53,1.5-2.27,2.12-3.51.43-.86.44-2.17,1.1-2.63,1.7-1.21,3.67-2.03,5.49-3.07.6-.34,1.5-.83,1.57-1.34.39-3.1,3.04-3,5.5-3.18,1.85-.14,2.51-1.99,1.27-3.35-2.28-2.52-2.46-5.05-.73-7.91.31-.52.41-1.65.08-1.99-1.74-1.8-3.4-3.95-5.57-4.99-3.11-1.49-3.71-1.68-2.91-5.07.53-2.24,1.4-4.39,2.15-6.57.43-1.24.52-2.5-1.02-2.76-2.08-.35-2.98-1.73-3.72-3.4-.87-1.95-1.55-4.02-2.65-5.82-.6-.99-1.83-1.71-2.92-2.25-1.38-.68-3-.89-4.36-1.6-3.27-1.7-5.78-1.05-7.43,2.12-1.39,2.67-2.25,2.97-4.81,1.41-1.35-.82-2.47-2.02-3.83-2.82-1.31-.77-2.77-1.68-4.21-1.78-4.71-.33-4.72-.2-3.64-4.65.03-.11-.17-.28-.38-.6-4.07,1.74-8.19,3.47-12.27,5.27-2.19.96-4.28,2.23-6.71.5-.44-.31-1.36-.22-1.95-.02-2.69.93-5.23,1.29-7.97-.17-2.29-1.23-3.65-.33-4.85,1.99-.33.65-1.79,1.27-2.48,1.06-1.47-.44-2.86-1.31-4.14-2.21-1.81-1.26-3.41-2.97-6.11-1.32-.31-1.73-.56-3.15-.82-4.61-1.32,1.04-2.47,1.94-3.9,3.07-.37-1.54-.65-2.7-1.01-4.18-1.11.37-2.06.8-3.06.98-.81.15-1.9.35-2.46-.05-1.76-1.27-3.19-3.01-5.01-4.16-1.16-.73-2.79-.98-4.19-.92-.51.02-1.18,1.47-1.41,2.37-.65,2.45-2.11,3.29-4.37,2.54-.68-.22-1.75-.04-2.35.38-3.67,2.56-4.4,2.53-6.92-.73-.24.03-.51.02-.76.1-4.16,1.36-8.31,2.74-12.48,4.07-.48.15-1.11.14-1.58-.04-1.74-.64-3.59-1.17-5.14-2.15-1.76-1.12-2.68-.03-3.6.97-.48.52-.56,1.41-1.04,2.75-2.81-3.83-6.56-2.94-10.1-2.99-.89-.01-1.79-.04-2.67,0-1.86.1-3.11-.38-3.11-2.61,0-.68-.45-1.64-1-1.99-3.3-2.09-6.69-4.04-10.07-6.05-1.28,1.15-2.41,2.78-3.95,3.4-2.11.85-4.52,1.15-6.81,1.21-.78.02-1.56-1.45-2.4-2.17-.44-.37-1.06-.86-1.54-.8-1.81.21-3.68.4-5.39,1-2.57.91-4.7,2.99-7.89,1.01-1.91-1.19-4.74,1.07-4.5,2.92.54,4.12,1.26,8.25,1.27,12.38,0,3.4,1.38,5.69,4.3,6.5,1.38.38,3.54-.68,4.84-1.72,2.5-1.99,4.46-.7,6.15.77.86.76.88,2.49,1.27,3.78.21.47,1.08.53,1.95.54,4.24.05,5.62,1.38,5.67,5.54.02,2.14-.2,4.3.07,6.41.28,2.28,1,4.5,1.53,6.75.19.15.39.29.58.44,1.4-4.09,3.91-3.39,6.56-2.14,1.6.75,3.2,1.51,4.85,2.14.69.27,1.59.5,2.24.29,2.36-.76,4.75-1.55,6.96-2.65,2.36-1.18,3.71-.56,5.07,1.56,1.25,1.96,2.77,3.82,4.49,5.37,2.05,1.85,4.43,3.32,7.08,5.25-4.4,3.67-7.82,7.32-7.64,13.12.7.05,1.67-.1,2.4.25,1,.47,2.26,1.13,2.65,2.04,2.18,5.06,2.1,5.09-2.77,8.2-.3.19-.6.39-.87.63-2.62,2.29-2.57,5.69.41,7.3,5.87,3.18,12.34,2.56,18.65,2.2,3.06-.18,6.07-1.19,9.11-1.77,4.82-.91,4.83-.99,5.01-5.99.05-1.33.35-2.94,1.16-3.89,2.2-2.56,4.68-4.9,7.14-7.22,2.55-2.41,8.22-1.01,9.51,2.29.12.31.2.74.08,1.04-.67,1.66-1.4,3.3-2.17,5.07-.86-.36-1.71-.71-3.07-1.28.14,1.22,0,2.15.37,2.77,1.26,2.14.99,3.87-.56,5.82-1.96,2.48-1.33,5.35,1.19,7.08,2.88,1.98,3.03,3.83.73,6.46-.74.84-1.69,2.13-1.51,3,.38,1.87,1.18,3.8,2.33,5.29.52.67,2.33.32,3.54.5.6.09,1.32.15,1.76.51,3.79,3.04,7.69,5.97,11.22,9.3,1.38,1.3,2.56,1.94,4.36,1.94,5.14,0,7.42,2.14,7.74,7.25.09,1.49.53,2.38,2.16,2.37,1.82,0,2.82.98,3.61,2.61,1.28,2.63,2.79,5.15,4.35,7.62.37.58,1.41,1.14,2.07,1.06,2.05-.24,4.06-.79,6.09-1.23.15.31.3.62.45.94.87-1.13,1.74-2.25,2.61-3.38l.14.83c2.99.56,5.97,1.37,8.99,1.61.27.02.52,0,.76-.02Z"/>
</svg>