<?xml version="1.0" encoding="UTF-8"?>
<svg id="Ebene_1" data-name="Ebene 1" xmlns="http://www.w3.org/2000/svg" viewBox="0 0 354.34 333.02">
  <defs>
    <style>
      .cls-1 {
        fill: #4f4f4f;
      }

            .cls-3 {
        fill: #7c7c97;
      }

            .cls-5 {
        fill: #91798c;
      }
    </style>
  </defs>
  <path class="cls-1" d="m136.62,139.79s0,0,0,0c.86.97,1.61,1.81,2.12,2.68.43.73.59,1.97.71,2.97.09.73.07,1.52.04,2.43-.01.46-.02.93-.02,1.42v2.27l2.25-.29c.33-.04.67-.06,1.03-.08,1.54-.09,3.83-.23,5.21-2.79.27-.08.74-.16,1.27-.16.25,0,.41.02.49.03.57.09,1.17.19,1.77.19,1.41,0,2.58-.53,3.58-1.61.49-.54.85-.58,1.15-.58.57,0,1.3.25,2.08.51.56.19,1.13.38,1.74.52.85.19,1.69.24,2.43.28.5.03.97.05,1.39.12l.28.04c.3.04.8.12,1,.2.63.62,1.22,1.32,1.85,2.06.73.86,1.49,1.75,2.35,2.58.99.94,2.54,1.56,4.04,1.63,1.24.05,1.33.29,1.52.8,1.16,3.03,4.01,3.42,5.38,3.6.81.11,1.68.17,2.58.17,4.38,0,10.51-1.34,13.39-5.13.1-.13.17-.2.21-.24.1.02.31.09.73.31,1.22.65,1.73,1.16,2.31,1.75.73.74,1.56,1.58,3.44,2.51.71.36,1.36.53,1.97.53.22,0,.43-.02.64-.07.31-.07.6-.1.89-.1,1.43,0,2.72.81,4.21,1.75.66.42,1.35.85,2.09,1.22.62.32.93.65,1.01,1.7.12,1.61,1.14,2.86,2.04,3.97.07.09.14.18.21.26-1.05,2.88.46,5.26,1.98,7.07,1.46,1.74,2.85,3.84,4.12,6.22.59,1.1,1.07,2.27,1.58,3.51.65,1.58,1.33,3.21,2.25,4.75.93,1.55,2.58,2.38,4.04,3.12.2.1.4.2.59.3.97.51,2.51,1.14,4.29,1.29.12.01.25.02.38.02,1.02,0,2.99-.38,3.9-1.8.8-1.26,1.39-2.6,2.01-4.02.13-.29.26-.59.39-.89.12-.01.24-.02.36-.02,2.33,0,5.48,2.06,5.92,4.62.09.55.24,1.1.44,1.64.98,2.66,1.82,4.97,4.15,4.97,1.1,0,2.04-.58,3.16-1.6,3.01,2.78,6.86,3.04,10.31,3.04.39,0,.77,0,1.16,0h.71c2.44-.02,4.66-2,6.71-4.13.74-.77,2.44-1.6,3.79-1.6.19,0,.33.02.44.04,1.59,4.03,4.67,6.5,7.66,8.9.58.47,1.14.92,1.68,1.37l-.63,1.4c-.95,2.14-1.9,4.26-2.84,6.39-1.44-1.53-3.23-2.3-5.32-2.3-1.86,0-3.6.61-5,1.1-.74.26-1.43.38-2.13.38-1.56,0-3.02-.67-4.35-1.39-1.22-.66-2.37-1.53-3.59-2.44-1.56-1.17-3.16-2.38-5.03-3.22-2.06-.93-4.31-.96-6.49-.98-.58,0-1.16-.01-1.71-.04h-.06s-.05,0-.05,0h0c-1.98,0-2.85,2.58-2.97,3.28v.08c-.37,2-.63,3.45-.99,3.83-.34.37-1.78.68-3.6,1.08-1.48.32-3.26.91-3.92,2.58-.65,1.65.25,3.24.98,4.29.83,1.19,1.84,2.16,2.81,3.1.71.68,1.37,1.32,1.93,2,.58.71,1.06,1.59,1.57,2.52.28.52.57,1.05.9,1.58.26.43.52.96.79,1.53.78,1.63,1.67,3.48,3.44,4.19.6.24,1.23.37,1.85.37,2.24,0,4.33-1.56,5.88-4.39.04-.08.13-.24.6-.24.78,0,2.04.53,2.95,1.69,1.22,1.56,1.63,3.13-.37,5.74-.83,1.09-1.91,2.76-1.63,4.71.2,1.39,1.02,2.6,2.5,3.7.37.28.49.47.51.51,0,.06-.06.32-.4.78-2.04,2.74-3.71,5.24-5.13,7.64-.71,1.21-1.55,1.67-3.07,1.67-.75,0-1.55-.11-2.45-.24-.43-.06-.85-.09-1.25-.09-1.92,0-3.46.74-4.23,2.02-.43.71-.98,2.22.15,4.33.75,1.4.52,2.73.22,4.42-.21,1.2-.45,2.55-.28,3.99.21,1.77.34,3.33.41,4.75,0,.13-.04.39-.08.62-.08.48-.19,1.08-.11,1.75.03.28.05.57.07.87.1,1.36.22,3.05,1.29,4.26,1.06,1.19,2.72,1.23,4.06,1.26.32,0,.63.01.89.04-.66,1.29-1.38,2.57-2.09,3.82-.25.44-.49.87-.74,1.31-.33.59-.65,1.19-.98,1.78-.88,1.61-1.71,3.13-2.65,4.59-1.52,2.36-2.99,4.94-2.73,8.38,0,.16-.18.7-.63,1.28-.35.45-.7.91-1.05,1.37-1.47,1.93-2.86,3.75-4.52,5.21-3.07,2.71-4.3,5.78-3.87,9.68.21,1.88,0,2.24-.9,2.64-1.51.67-1.7,2.42-1.85,3.83-.04.34-.07.67-.12.91-.1.53-.14,1.12-.17,1.69-.01.16-.02.36-.04.55-.23.1-.45.21-.66.31-.56.27-1.14.56-1.51.56-.33,0-.73-.4-1.01-.73-2.25-2.68-4.79-5.13-7.24-7.5-1.27-1.23-2.59-2.49-3.83-3.76-1.07-1.1-2.18-1.63-3.4-1.63-.94,0-1.88.33-2.88,1.01-1.9,1.3-3.82,2.43-5.71,3.38-.16-.03-.38-.11-.5-.19-.1-.07-.44-.36-.87-1.31-1.49-3.28-4.04-4.88-7.79-4.88-1.12,0-2.24.13-3.32.25l-.5.06c-.91.1-1.81.24-2.69.38-1.53.24-2.97.47-4.38.47h0c-.16-.06-.58-.32-1.1-.86.03-.16.07-.33.1-.46.05-.23.1-.45.14-.65.04-.21.16-.58.27-.9.37-1.11.88-2.63-.35-3.69-1.46-1.26-3.2-2.55-4.99-2.55-.19,0-.37.01-.55.04-2.52.39-6.34.98-9,4.06-.14.13-.53.3-.77.34-.79-.3-1.52-.44-2.21-.44-2.44,0-3.69,1.78-4.27,2.9-1.01-1.5-2.35-2.85-4.55-3.07.8-4.71-2.97-6.74-4.6-7.62-1.42-.77-2.82-1.61-4.18-2.42-.12-.07-.24-.14-.36-.21.09-.27.18-.53.27-.8.66-1.97,1.28-3.84,2-5.6.09-.14.46-.44.79-.55,1.68-.59,2.72-1.52,3.07-2.77.54-1.94-.87-3.65-1.33-4.22-.41-.5-.87-.91-1.27-1.27-.4-.36-.78-.7-.97-1-.32-.52-.58-1.15-.86-1.82-.46-1.12-.99-2.39-1.93-3.44-1.01-1.12-2.36-1.76-3.56-2.32-.35-.16-.68-.32-.99-.48-1.06-3.3-2.99-7.48-7.63-8.97,1.55-3.46,1.01-4.61-2.38-7.92l-.04-.04c-.45-.44-.9-.87-1.36-1.31-1.61-1.55-3.13-3.01-4.53-4.61-2.11-2.43-4.83-3.2-7.22-3.88-.39-.11-.79-.22-1.18-.34-.78-.24-1.72-.93-2.67-1.95-.76-.81-1.42-1.75-2.13-2.75-.47-.66-.95-1.34-1.47-2-.41-.52-1.53-1.74-2.99-1.74h-.04s-.02,0-.02,0h-.09c-.25,0-.39-.02-.47-.04-.06-.15-.14-.51-.19-1.33-.12-1.7-.97-3.58-2.23-4.91-.81-.85-.99-1.45-.42-3.06.57-1.58.64-3.54.18-5.11-1.03-3.58-2.2-7.16-3.33-10.63-.37-1.12-.73-2.24-1.09-3.36-.04-.13-.07-.23-.08-.31.02,0,.04-.02.06-.03,1.18-.49,2.55-1.13,3.73-2.06.16-.12.32-.25.49-.38,1.21-.93,2.7-2.08,3.31-3.74,1.71-4.69,1.59-9.7-.37-14.89-1.28-3.4-2.2-7-3.08-10.49.17-.25.45-.59.6-.78l.04-.05c.71-.86,1.47-1.73,2.21-2.56.74-.84,1.51-1.7,2.25-2.6,1.99-2.41,2.08-5.18,2.16-7.62l.02-.66c.05-1.33.41-2.58.88-3.11,5.61-6.3,6.18-11.42,2.02-18.23-.45-.73-.41-.92.5-2.17.3-.41.62-.86.9-1.37.13.06.26.13.36.19.2.11.4.21.59.3,1.92.92,3.79,1.85,5.78,2.83l2.4,1.19,1.25.61,1.01-.95,1.33-1.26c.99-.94,1.97-1.86,2.95-2.78.78-.73,1.56-1.45,2.27-2.12m.15-2.87c-1.03.96-2.42,2.24-3.8,3.53-1.42,1.33-2.83,2.67-4.28,4.05-2.79-1.37-5.48-2.72-8.2-4.03-.7-.34-1.54-.9-2.25-.9-.47,0-.88.24-1.17.94-.74,1.81-3.15,3.14-1.49,5.85,3.82,6.26,3.13,10.32-1.81,15.86-.94,1.05-1.33,2.87-1.39,4.36-.1,2.52-.02,5.01-1.73,7.08-1.45,1.75-3.02,3.4-4.46,5.16-.52.63-1.3,1.56-1.15,2.15.94,3.76,1.9,7.54,3.26,11.15,1.71,4.52,2,9.03.37,13.5-.47,1.3-1.97,2.3-3.16,3.23-.96.76-2.12,1.31-3.27,1.78-1.4.59-1.51,1.54-1.11,2.79,1.5,4.63,3.06,9.24,4.41,13.92.34,1.2.28,2.71-.15,3.88-.71,1.97-.7,3.48.85,5.11.89.94,1.6,2.4,1.69,3.67.13,1.94.42,3.24,2.66,3.24.04,0,.09,0,.13,0,0,0,0,0,.01,0,.47,0,1.07.54,1.42.98,1.27,1.6,2.32,3.38,3.7,4.86.97,1.05,2.23,2.1,3.55,2.5,2.71.83,5.45,1.3,7.48,3.63,1.86,2.13,3.96,4.06,5.99,6.04q3.29,3.2,1.27,7.19c-.07.13.02.34.07.85,4.82.54,6.93,4.04,8.26,8.3.08.25.22.55.42.67,1.51.87,3.36,1.41,4.47,2.63,1.2,1.33,1.6,3.37,2.57,4.96.59.96,1.67,1.6,2.4,2.49,1.29,1.58,1.64,2.96-.85,3.83-.77.27-1.68.94-1.97,1.65-1.05,2.58-1.87,5.26-2.85,8.08,1.9,1.11,3.91,2.37,6,3.5,2.31,1.25,4.16,2.67,3.54,5.74-.13.64.13,1.37.24,2.23.42-.09.8-.13,1.16-.13,2.59,0,3.56,2.28,4.88,4.55.78-.85,1.5-1.33,1.81-2,.67-1.48,1.46-2.35,2.75-2.35.48,0,1.02.12,1.65.37.13.05.3.08.47.08.78,0,1.87-.47,2.34-1.01,2.1-2.42,5.02-2.98,7.82-3.41.08-.01.16-.02.25-.02,1.18,0,2.64,1.17,3.69,2.07.34.29-.41,1.77-.58,2.73-.14.79-.53,1.92-.16,2.35.75.89,1.93,1.97,2.93,1.97.02,0,.05,0,.07,0,2.43,0,4.85-.59,7.28-.86,1.21-.13,2.43-.29,3.6-.29,2.42,0,4.61.68,5.97,3.7.36.79.86,1.64,1.54,2.12.45.31,1.17.57,1.76.57.21,0,.4-.03.55-.11,2.14-1.05,4.2-2.29,6.17-3.63.65-.44,1.22-.66,1.76-.66.67,0,1.29.34,1.97,1.03,3.65,3.73,7.63,7.17,10.97,11.15.9,1.08,1.74,1.44,2.54,1.44,1.31,0,2.52-.97,3.76-1.35.49-.15.36-2.22.58-3.39.21-1.14.18-2.99.82-3.28,2.31-1.03,2.28-2.84,2.07-4.69-.36-3.28.68-5.74,3.21-7.96,2.23-1.96,3.98-4.48,5.83-6.84.57-.73,1.12-1.79,1.05-2.65-.21-2.78.99-4.95,2.42-7.16,1.35-2.09,2.48-4.31,3.7-6.48,1.15-2.06,2.34-4.09,3.36-6.21.24-.5.02-1.43-.32-1.93-.04-.06-.14-.09-.27-.09-.33,0-.86.15-1.28.15-.05,0-.09,0-.14,0-1.29-.13-3.07.1-3.73-.64-.8-.9-.72-2.64-.87-4.03-.08-.73.24-1.5.2-2.24-.08-1.63-.24-3.26-.43-4.89-.35-3.01,1.58-5.87-.17-9.12-1.14-2.12.09-3.4,2.31-3.4.3,0,.63.02.96.07.92.13,1.84.26,2.73.26,1.84,0,3.55-.54,4.79-2.65,1.52-2.58,3.22-5.06,5.01-7.46,1.23-1.66,1.01-2.96-.52-4.09-2.33-1.72-2.12-3.42-.47-5.58,1.94-2.53,2.67-5.23.35-8.19-1.21-1.54-3.01-2.45-4.52-2.45-1,0-1.87.4-2.35,1.28-.98,1.79-2.43,3.35-4.12,3.35-.36,0-.73-.07-1.1-.22-1.5-.61-2.22-3.19-3.27-4.91-.88-1.44-1.57-3.03-2.62-4.32-1.43-1.76-3.37-3.13-4.65-4.98-1.55-2.23-.96-3.19,1.73-3.78,5.18-1.14,5.16-1.14,6.13-6.59.11-.61.68-1.63,1-1.63,0,0,0,0,0,0,2.52.12,5.3-.15,7.49.84,3.05,1.38,5.52,4,8.5,5.61,1.66.9,3.36,1.63,5.3,1.63.87,0,1.8-.15,2.79-.49,1.32-.46,2.83-.98,4.34-.98,1.5,0,2.99.52,4.27,2.13.34.42.74.63,1.15.63.6,0,1.2-.45,1.58-1.31,1.39-3.16,2.8-6.3,4.22-9.49-3.75-3.41-8.43-5.93-10.15-11.13-.04-.13-.28-.21-.43-.29-.47-.25-1.03-.36-1.64-.36-1.85,0-4.09,1.02-5.24,2.22-1.46,1.52-3.49,3.5-5.28,3.51-.61,0-1.23.01-1.86.01-3.75,0-7.61-.31-10.21-3.94-1.61,1.64-2.55,2.5-3.26,2.5-.83,0-1.36-1.17-2.27-3.66-.15-.41-.27-.85-.34-1.28-.6-3.51-4.58-6.28-7.89-6.28-.63,0-1.23.1-1.78.31-.98,2.11-1.64,3.94-2.67,5.54-.35.54-1.42.88-2.22.88-.07,0-.14,0-.21,0-1.2-.1-2.45-.51-3.53-1.07-1.39-.72-3.1-1.45-3.84-2.67-1.54-2.56-2.37-5.53-3.79-8.17-1.23-2.31-2.67-4.56-4.35-6.57-1.92-2.29-2.42-3.98-1.19-6.02-.94-1.42-2.48-2.73-2.59-4.16-.13-1.74-.86-2.69-2.09-3.33-2.34-1.2-4.42-3.19-7.21-3.19-.42,0-.87.05-1.33.15-.07.01-.14.02-.21.02-.35,0-.75-.16-1.07-.32-3.09-1.54-2.65-2.61-5.69-4.23-.63-.34-1.2-.56-1.73-.56-.61,0-1.17.29-1.74,1.04-2.22,2.94-7.46,4.34-11.79,4.34-.81,0-1.59-.05-2.31-.15-1.78-.24-3.14-.66-3.78-2.33-.61-1.61-1.71-2.01-3.31-2.08-.94-.04-2.08-.44-2.75-1.08-1.53-1.44-2.74-3.21-4.25-4.68-.52-.5-1.51-.6-2.31-.72-1.22-.19-2.48-.09-3.67-.37-1.43-.33-2.87-1.08-4.27-1.08-.89,0-1.77.31-2.62,1.22-.7.75-1.36.97-2.11.97-.45,0-.92-.08-1.46-.16-.24-.04-.51-.06-.8-.06-1.18,0-2.62.31-2.87.88-1.05,2.36-2.86,1.91-4.9,2.17,0-1.51.12-2.82-.03-4.1-.16-1.28-.34-2.68-.97-3.75-.89-1.51-2.22-2.76-3.69-4.53h0Z"/>
  <path class="cls-1" d="m252.98,141.75c2.18,2.54,4.97,2.9,7.42,2.91.5,0,1.3.41,2.02.77.24.12.47.24.7.35.93.44,1.83.94,2.98,1.57.43.24.88.49,1.37.75l.53.81.9,1.36c-.98,1.14-2.52,3.06-1.49,5.66-.26.33-.52.7-.71,1.1-.07.15-.16.32-.25.5-.66,1.31-1.48,2.93-.46,4.28.45.59.86,1.26,1.3,1.97,1.52,2.47,3.42,5.54,7.71,6,.12.01.27.05.43.1-.07,2.5-1.43,4.56-4.35,6.71-2.57,1.89-3.86,3.78-4.05,5.93-.2,2.19.75,4.38,3.05,7-1.5,1.6-2.87,2.28-4.52,2.28-.96,0-2.07-.23-3.38-.69-.19-.16-.55-.69-.77-1.02-.12-.19-.25-.37-.37-.55l-.05-.07c-1.23-1.75-2.04-2.9-3.65-2.9-.84,0-1.51.34-2.29.94-1.87-5.01-6.9-8.65-12.2-8.65-.3,0-.6.01-.9.03-2.17.16-4.21,1.1-5.54,1.85-1.38.78-1.48,2.4-1.56,3.7-.01.17-.02.33-.03.48,0,.1-.02.21-.02.31-2.19-.49-2.49-1.43-2.27-3,.11-.79,0-2.37-1.08-3.29-1.84-1.56-2.94-3.73-4.11-6.03-.9-1.77-1.83-3.6-3.16-5.26.47-.77.67-1.56.61-2.35-.15-1.68-1.45-2.71-2.41-3.47l-.22-.17c-.07-.06-.14-.12-.21-.17.96-4.6-2.76-6.1-4.6-6.85-.66-.27-1.28-.52-1.66-.79-1.66-1.22-2.99-1.75-4.41-2.31-.36-.15-.74-.29-1.14-.46.22-.84.44-1.65.72-2.37.43.11.98.28,1.62.49,1.55.53,2.89,1.04,4.18,1.53,1.85.71,3.59,1.38,5.85,2.07.23.07.48.11.73.11,1.2,0,2.17-.82,3.03-1.54.14-.12.27-.23.4-.33.14-.11.28-.23.42-.35.07-.06.15-.13.23-.19.35.3.93.61,1.82.61.75,0,1.66-.23,2.3-.58,1.27-.69,2.51-1.45,3.72-2.17,2.28-1.38,4.44-2.68,6.74-3.62,2.64-1.08,5.47-1.71,8.46-2.39.87-.19,1.74-.39,2.6-.6m.03-2.04c-.07,0-.14,0-.2.02-3.91.95-7.96,1.63-11.65,3.15-3.73,1.53-7.09,3.94-10.66,5.89-.34.19-.91.34-1.34.34-.23,0-.43-.04-.54-.14-.48-.46-.89-.63-1.26-.63-.7,0-1.27.62-1.91,1.13-.67.53-1.59,1.44-2.19,1.44-.05,0-.1,0-.15-.02-3.79-1.16-6.21-2.3-9.96-3.58-.93-.32-2.48-.79-3.16-.79-.17,0-.29.03-.33.1-.88,1.52-1.27,3.34-1.73,5.09-.06.23.43.77.78.93,2.37,1.06,3.77,1.34,5.81,2.84,2.17,1.59,6.83,1.5,5.29,6.36-.1.33.64,1.04,1.11,1.41,1.37,1.09,2.84,2.06,1.08,4.02-.18.2.1,1.02.39,1.37,3.07,3.64,4.01,8.66,7.77,11.85.33.28.46,1.01.4,1.49-.44,3.1,1.14,4.67,3.95,5.26.44.09.89.11,1.35.11.22,0,.44,0,.66,0,.15,0,.3,0,.45,0-.06-.74-.21-1.49-.14-2.22.08-.91.05-2.32.58-2.61,1.43-.8,3.09-1.47,4.71-1.59.25-.02.5-.03.75-.03,4.9,0,9.43,3.63,10.66,8.4.12.48.32.94.54,1.57.48-.32.78-.49,1.03-.71,1.15-1.01,1.75-1.55,2.26-1.55.58,0,1.05.68,2.06,2.12.59.84,1.19,1.97,2.04,2.28,1.53.55,2.88.83,4.11.83,2.73,0,4.88-1.38,7.12-4.26-.14-.2-.27-.43-.44-.61-4.31-4.56-4.33-7.52.03-10.73,3.05-2.25,5.63-5.2,5.1-9.74-.65-.21-1.38-.59-2.15-.67-4.36-.47-5.51-4.39-7.63-7.19-.33-.43.5-1.82.92-2.71.32-.69,1.36-1.63,1.2-1.87-1.76-2.65.61-4.02,1.66-5.64-1.04-1.58-2-3.04-2.5-3.8-2.04-1.1-3.43-1.92-4.89-2.61-1.15-.55-2.37-1.3-3.57-1.31-2.35-.01-4.38-.38-5.98-2.28-.29-.35-.95-.67-1.42-.67h0Z"/>
  <path class="cls-1" d="m187.39,79.96c.13.03.38.14.56.21.4.16.89.37,1.45.47.61.11,1.05.23,1.36.33-.05.16-.09.33-.14.5-.95,3.4-2.14,7.64-.05,12.28.25.55.46,1.28.69,2.06.69,2.4,1.71,5.91,5.21,8.03.39,3.24,2.45,5.33,3.86,6.77.49.49,1.23,1.24,1.32,1.54.72,2.53,3,3.24,3.75,3.48l.09.03c.43.17.87.33,1.3.49l.06.02c.67.25,1.3.48,1.92.75.26.11.55.27.85.43l.09.05c.73.39,1.45.76,2.3,1.07.38.17.8.3,1.28.41.44.13.87.26,1.3.37-.44,1.57-.36,3.07-.31,4.1v.09c.02.21.03.42.03.62.02,1.03-.08,1.11-.41,1.39-2.54,2.16-5.25,4.75-5.27,8.27-.02,2.63-.65,3.22-1.98,3.87-1.03.5-2.31,1.56-2.6,3.83,0,.02,0,.05-.01.08l-.39,1.9-.31,1.52,1.01.49c-.51,1.13-.85,2.27-1.14,3.34-.28-.14-.57-.3-.87-.45-1.42-.75-2.88-1.53-4.59-1.78-.22-.03-.44-.05-.67-.05-1.93,0-4.04,1.19-5.27,2.36-1.43,1.37-4.44,2.49-6.69,2.49-.72,0-1.34-.12-1.73-.34-.28-.16-.71-.86-1.05-1.42-.26-.43-.55-.91-.89-1.37l-.73-.98-1.2.2c-.74.12-1.32.22-1.71.22-.73,0-1.45-.59-4.16-3.35.44-.51.9-1.08,1.28-1.71.41-.69.6-1.38.76-2,.1-.36.19-.71.3-.92.84-1.64,1.56-2.99,2.47-4.14.12-.12.59-.31.83-.41.25-.1.5-.2.74-.33l2.07-1.11-1.43-1.87c-.9-1.17-1.73-2.19-2.53-3.18-1.66-2.05-2.98-3.66-3.93-5.44-.37-.7-.43-1.8-.48-2.98-.04-.89-.09-1.8-.27-2.73-.14-.72-.61-2.53-1.94-3.8-1.04-.99-.9-1.69-.38-2.43,1.77-2.5,1.36-5.09-1.1-7.09-.14-.11-.24-.21-.31-.28.07-.08.18-.18.32-.31,1.16-1.03,2.28-2.11,3.37-3.16.5-.48,1-.97,1.51-1.45h.02c.25-.17.77-.5,1.08-1.14.39-.8.79-1.6,1.18-2.39,1.2-2.41,2.44-4.91,3.52-7.45.11-.27.22-.54.33-.81.67-1.68,1.05-2.51,2.24-3.03,1.21-.54,1.88-1.63,2.41-2.51.24-.39.48-.79.7-1.01.36-.36.79-.59,1.02-.64m0-2.01s-.1,0-.14,0c-.81.08-1.7.64-2.3,1.24-.93.95-1.42,2.61-2.49,3.09-2.28,1.01-2.77,2.93-3.6,4.89-1.4,3.31-3.07,6.51-4.65,9.75-.1.21-.42.32-.61.5-1.63,1.54-3.21,3.14-4.89,4.62-1.46,1.3-1.55,2.34.06,3.64,1.41,1.14,2.07,2.49.73,4.39-1.17,1.65-1.03,3.45.63,5.03.7.67,1.17,1.77,1.36,2.74.41,2.08.01,4.52.95,6.27,1.53,2.85,3.86,5.26,6.64,8.89-.52.28-1.63.54-2.18,1.25-1.07,1.36-1.89,2.93-2.69,4.48-.45.88-.49,1.97-.99,2.81-.62,1.03-1.53,1.89-2.29,2.81,4.13,4.26,5.13,5.29,6.89,5.29.56,0,1.2-.1,2.04-.24.9,1.22,1.49,2.74,2.59,3.35.73.41,1.67.59,2.7.59,2.82,0,6.31-1.36,8.07-3.04.97-.93,2.6-1.81,3.89-1.81.13,0,.25,0,.37.03,2.03.31,3.9,1.67,5.86,2.53.43.19.91.44,1.37.64-.03-.26-.03-.53.04-.8l.18-.71c.42-1.63.85-3.32,1.75-4.87.17-.29.38-.49.61-.66l-1.67-.81.39-1.9c.02-.1.03-.18.04-.25.05-.41.21-1.65,1.49-2.26,2.28-1.1,3.09-2.58,3.11-5.66.02-2.67,2.37-4.89,4.57-6.76.88-.75,1.14-1.44,1.11-2.96,0-.25-.02-.51-.03-.77-.07-1.4-.18-3.49,1.1-5.28-.63-.2-1.28-.38-1.96-.57-.54-.15-1.08-.3-1.64-.47-.37-.08-.72-.18-1.02-.32-.79-.28-1.49-.65-2.11-.98-.36-.19-.72-.39-1.09-.55-.68-.3-1.38-.55-2.08-.81-.44-.16-.87-.32-1.31-.49-.05-.02-.12-.04-.18-.06-.6-.19-2-.62-2.42-2.12-.22-.78-.96-1.53-1.82-2.4-1.46-1.48-3.41-3.45-3.35-6.59-3.57-1.63-4.52-4.91-5.23-7.35-.25-.85-.48-1.65-.78-2.33-1.79-3.98-.76-7.67.15-10.93.12-.41.23-.83.34-1.24l.07-.26s.03-.1.04-.15c-.04-.14-.06-.27-.09-.4-.61-.63-1.64-1-3.16-1.28-.81-.15-1.61-.72-2.37-.72h0Z"/>
  <path class="cls-3" d="m166.9,142.13l.56-.67c.26-.31.54-.62.82-.93.4-.44.77-.86,1-1.2.04-.13.07-.27.11-.41.1-.37.23-.84.42-1.35.05-.69.34-1.47.77-1.95.12-.13.25-.25.37-.38.51-.95,1.09-1.96,1.79-2.95-1.66-2.05-3.11-3.87-4.27-6.04-1.07-1.99-1.17-4.07-1.25-5.74-.03-.68-.06-1.33-.15-1.79-.04-.19-.11-.36-.15-.45-2.83-2.77-3.45-6.48-1.73-9.75-1.36-1.34-2.06-2.86-2.1-4.52-.04-1.94.85-3.73,2.64-5.32.43-.38.85-.77,1.27-1.16.33-.38.69-.74,1.1-1.04.26-.25.52-.5.79-.76.54-.52,1.08-1.04,1.62-1.56.03-.03.06-.06.1-.09.25-.52.51-1.03.77-1.54,1.21-2.44,2.35-4.73,3.36-7.1.1-.23.19-.46.28-.69.74-1.84,1.83-4.56,4.96-6.23.06-.09.12-.19.17-.28.31-.52.7-1.13,1.22-1.75.54-1.8,1.5-2.6,3.08-2.33.69-.32,1.48-.58,2.36-.67,1.6-.16,2.87.36,3.63.68.09.04.17.07.26.11.71.13,1.49.32,2.28.6.64-.27,1.29-.6,1.96-.94,1.04-.53,1.5-2.27,2.12-3.51.43-.86.44-2.17,1.1-2.63,1.7-1.21,3.67-2.03,5.49-3.07.6-.34,1.5-.83,1.57-1.34.39-3.1,3.04-3,5.5-3.18,1.85-.14,2.51-1.99,1.27-3.35-2.28-2.52-2.46-5.05-.73-7.91.31-.52.41-1.65.08-1.99-1.74-1.8-3.4-3.95-5.57-4.99-3.11-1.49-3.71-1.68-2.91-5.07.53-2.24,1.4-4.39,2.15-6.57.43-1.24.52-2.5-1.02-2.76-2.08-.35-2.98-1.73-3.72-3.4-.87-1.95-1.55-4.02-2.65-5.82-.6-.99-1.83-1.71-2.92-2.25-1.38-.68-3-.89-4.36-1.6-3.27-1.7-5.78-1.05-7.43,2.12-1.39,2.67-2.25,2.97-4.81,1.41-1.35-.82-2.47-2.02-3.83-2.82-1.31-.77-2.77-1.68-4.21-1.78-4.71-.33-4.72-.2-3.64-4.65.03-.11-.17-.28-.38-.6-4.07,1.74-8.19,3.47-12.27,5.27-2.19.96-4.28,2.23-6.71.5-.44-.31-1.36-.22-1.95-.02-2.69.93-5.23,1.29-7.97-.17-2.29-1.23-3.65-.33-4.85,1.99-.33.65-1.79,1.27-2.48,1.06-1.47-.44-2.86-1.31-4.14-2.21-1.81-1.26-3.41-2.97-6.11-1.32-.31-1.73-.56-3.15-.82-4.61-1.32,1.04-2.47,1.94-3.9,3.07-.37-1.54-.65-2.7-1.01-4.18-1.11.37-2.06.8-3.06.98-.81.15-1.9.35-2.46-.05-1.76-1.27-3.19-3.01-5.01-4.16-1.16-.73-2.79-.98-4.19-.92-.51.02-1.18,1.47-1.41,2.37-.65,2.45-2.11,3.29-4.37,2.54-.68-.22-1.75-.04-2.35.38-3.67,2.56-4.4,2.53-6.92-.73-.24.03-.51.02-.76.1-4.16,1.36-8.31,2.74-12.48,4.07-.48.15-1.11.14-1.58-.04-1.74-.64-3.59-1.17-5.14-2.15-1.76-1.12-2.68-.03-3.6.97-.48.52-.56,1.41-1.04,2.75-2.81-3.83-6.56-2.94-10.1-2.99-.89-.01-1.79-.04-2.67,0-1.86.1-3.11-.38-3.11-2.61,0-.68-.45-1.64-1-1.99-3.3-2.09-6.69-4.04-10.07-6.05-1.28,1.15-2.41,2.78-3.95,3.4-2.11.85-4.52,1.15-6.81,1.21-.78.02-1.56-1.45-2.4-2.17-.44-.37-1.06-.86-1.54-.8-1.81.21-3.68.4-5.39,1-2.57.91-4.7,2.99-7.89,1.01C2.61,2.46-.23,4.72.01,6.57c.54,4.12,1.26,8.25,1.27,12.38,0,3.4,1.38,5.69,4.3,6.5,1.38.38,3.54-.68,4.84-1.72,2.5-1.99,4.46-.7,6.15.77.86.76.88,2.49,1.27,3.78.21.47,1.08.53,1.95.54,4.24.05,5.62,1.38,5.67,5.54.02,2.14-.2,4.3.07,6.41.28,2.28,1,4.5,1.53,6.75.19.15.39.29.58.44,1.4-4.09,3.91-3.39,6.56-2.14,1.6.75,3.2,1.51,4.85,2.14.69.27,1.59.5,2.24.29,2.36-.76,4.75-1.55,6.96-2.65,2.36-1.18,3.71-.56,5.07,1.56,1.25,1.96,2.77,3.82,4.49,5.37,2.05,1.85,4.43,3.32,7.08,5.25-4.4,3.67-7.82,7.32-7.64,13.12.7.05,1.67-.1,2.4.25,1,.47,2.26,1.13,2.65,2.04,2.18,5.06,2.1,5.09-2.77,8.2-.3.19-.6.39-.87.63-2.62,2.29-2.57,5.69.41,7.3,5.87,3.18,12.34,2.56,18.65,2.2,3.06-.18,6.07-1.19,9.11-1.77,4.82-.91,4.83-.99,5.01-5.99.05-1.33.35-2.94,1.16-3.89,2.2-2.56,4.68-4.9,7.14-7.22,2.55-2.41,8.22-1.01,9.51,2.29.12.31.2.74.08,1.04-.67,1.66-1.4,3.3-2.17,5.07-.86-.36-1.71-.71-3.07-1.28.14,1.22,0,2.15.37,2.77,1.26,2.14.99,3.87-.56,5.82-1.96,2.48-1.33,5.35,1.19,7.08,2.88,1.98,3.03,3.83.73,6.46-.74.84-1.69,2.13-1.51,3,.38,1.87,1.18,3.8,2.33,5.29.52.67,2.33.32,3.54.5.6.09,1.32.15,1.76.51,3.79,3.04,7.69,5.97,11.22,9.3,1.38,1.3,2.56,1.94,4.36,1.94,5.14,0,7.42,2.14,7.74,7.25.09,1.49.53,2.38,2.16,2.37,1.82,0,2.82.98,3.61,2.61,1.28,2.63,2.79,5.15,4.35,7.62.37.58,1.41,1.14,2.07,1.06,2.05-.24,4.06-.79,6.09-1.23.15.31.3.62.45.94.87-1.13,1.74-2.25,2.61-3.38l.14.83c2.99.56,5.97,1.37,8.99,1.61.27.02.52,0,.76-.02Z"/>
  <path class="cls-5" d="m352.61,161.47c-2.83-1.69-2.82-1.72-.92-3.68-.54-2.85-1.38-5.14-1.33-7.42.09-4.47-1.47-8.37-3.5-12.12-1.02-1.89-1.06-3.29.6-4.7.75-.63,1.43-1.34,2.12-2.03q2.76-2.74.38-5.59c-.34-.41-.74-.85-.87-1.34-1.06-4.08-2.78-8.16-2.92-12.28-.18-5.38-2.44-8.74-7.03-10.85-1.7-.79-3.76-1.99-5.34-1.63-5.59,1.28-11.09,3.01-16.51,4.9-1.79.62-2.71.18-3.58-1.1-1.63-2.43-3.18-4.92-4.79-7.37-.92-1.4-1.87-2.77-2.86-4.23,4.49-1.6,4.43-1.67,5.28-3.21.84-1.52,1.96-2.88,2.82-4.38.35-.61.55-1.45.48-2.15-.24-2.67.71-3.97,3.4-4.31,1.76-.22,3.53-.39,5.3-.61,1.58-.2,2.77-1.14,2.04-2.67-1.43-2.99.25-3.19,2.43-3.17,1.83.01,2.28-.73,1.81-2.53-1.23-4.71-3.53-8.59-7.87-11.05-1.83-1.04-1.53-2.25-.2-3.37,2.02-1.71,2.26-3.39.94-5.82-2-3.66.81-5.81,3.09-8.15,1.55-1.59,2.9-1.2,4.55-.47,1.5.67,2.44.34,3.35-1.36,1.08-2.01.18-3.52-.83-4.59-2.01-2.13-3-4.17-.88-7.07-1.57-.4-2.7-.57-3.74-.99-.65-.27-1.36-.8-1.67-1.4-.79-1.53-1.01-3.48-2.1-4.71-2.22-2.53-2.5-5.36-2.38-8.46.04-1.11.1-2.62-.53-3.3-2.49-2.65-5.19-5.12-7.97-7.46-.71-.6-2.04-.47-3.09-.67,1.51,2.99,1.97,5.92.37,7.87-1.49,1.83-4.34,2.55-6.65,3.79,1.03,3.8.78,4.48-2.96,6.18-2.96,1.35-5.95,2.7-9.02,3.74-2.49.84-5.16,1.15-7.72,1.84-1.73.47-3.4,1.17-5.09,1.81-.57.21-1.08.63-1.66.78-4.19,1.14-7.79,3.17-9.76,7.18-.93,1.89-2.09,2.21-3.85,1.65-2.45-.78-4.7-1.07-7.13.55-3.86,2.59-7.95,4.7-7.74,10.39.04,1-1.51,2.32-2.63,2.99-.47.28-1.76-.71-2.61-1.23-.6-.37-1-1.14-1.62-1.34-.57-.18-1.38.05-1.94.36-.25.14-.33.96-.2,1.38.83,2.69,1.67,5.37,2.64,8.01.95,2.58.07,4.07-2.69,4.36-1.13.12-2.34.16-3.36.59-1.89.81-3.4.6-4.56-1.11-2.66,1.91-2.82,1.87-3.84-1.17-.63-1.88-1.42-3.02-3.63-1.71-1.2.71-2.62,1.08-3.97,1.5-1.84.58-3.61.9-5.05-1.02-.65-.87-1.68-1.45-2.64-2.24.81,2.14,1.53,4.06,2.49,6.59-1.77.46-3.32.83-4.86,1.27-.8.23-2.16.4-2.27.85-.67,2.62-2.72,3.01-4.83,3.44-2.81.58-4.45,2.47-4.52,5.33-.03,1.47-.11,2.69-1.8,3.46-.68.31-1.31.78-1.66,1.41l.56.58.22.94c.02.09.04.18.06.27l.29.92-.4,1.36c-.11.4-.22.82-.34,1.24-.83,2.97-1.61,5.75-.34,8.57.41.9.68,1.86.95,2.79.73,2.53,1.36,4.25,3.32,5.15l2.09.95-.04,2.3c-.03,1.55.91,2.62,2.34,4.07,1.03,1.04,2.08,2.11,2.6,3.57.07.02.15.05.21.07.14.04.26.08.36.12.46.18.88.33,1.29.49.8.3,1.54.57,2.26.88.43.19.84.4,1.26.63l.09.05c.58.31,1.09.58,1.61.76l.36.15h0s.07.02.21.05l.3.08c.52.16,1.04.31,1.55.45.72.2,1.43.39,2.1.61l4.59,1.47-2.81,3.91c-.57.79-.5,1.99-.45,3.06v.1c.02.26.03.51.04.77.04,1.81-.21,3.9-2.35,5.71-.99.84-3.32,2.82-3.33,4.11-.02,2.74-.53,6.09-4.16,8.28l.68.5c1.33.13,2.68.59,3.79.97,1.66.56,3.04,1.1,4.39,1.61,1.28.49,2.5.96,3.87,1.42.09-.08.18-.15.27-.22.09-.07.18-.15.27-.22,2.51-2.12,4.66-2.03,6.23-1.34.85-.49,1.71-1.01,2.6-1.55,2.38-1.44,4.84-2.92,7.57-4.04,3.11-1.27,6.32-1.99,9.42-2.69.94-.21,1.87-.42,2.8-.65,2.18-.53,4.48.59,5.63,1.96.41.49.86.84,2.93.85,1.9.01,3.51.82,4.68,1.41.2.1.39.2.58.29,1.1.52,2.12,1.09,3.3,1.74.54.3,1.12.62,1.77.97l.89.48,1.21,1.84c.06.03.12.05.18.08,1.28.51,1.27,1.03.9,1.56l2.2,3.35-1.42,2.19c-.39.6-.81,1.08-1.18,1.52-.06.07-.14.16-.21.25.77,1.6.42,3.29-1.01,5.08-.08.11-.18.21-.25.32-.03.07-.06.13-.1.2.15.24.29.47.43.7,1.47,2.39,2.04,3.05,3.24,3.18,1.06.11,1.92.45,2.55.69.14.05.27.11.4.15l2.44.79.3,2.55c.92,7.82-4.81,12.05-6.7,13.43-1.47,1.08-1.63,1.64-1.64,1.65,0,0,0,.84,2.14,3.11.35.38.59.74.74.95l1.04,1.45c.1.02.21.04.31.05,1.42.13,2.38-.38,3.8-.48,2.37-.17,3.83.51,3.58,3.23-.05.59,0,1.49.37,1.77,3.33,2.48,6.46,5.56,10.22,7.04,3.48,1.37,7.64,1.01,11.5,1.35,5.35.48,10.65.47,15.36,4.12,2.99,2.32,6.86,3.64,10.51,4.92,3.12,1.09,5.08-.13,6.42-3.24,2.67-6.18,5.29-12.39,7.93-18.58.81-1.89,1.71-3.79-1.34-5.45,2.19-1.57,3.91-3.04,5.85-4.1,1.42-.78,1.75-1.4,1.45-3.09-.64-3.54-1.48-7.32.72-10.6,1.36-2.02.76-2.99-.98-4.03Z"/>
</svg> 