<?xml version="1.0" encoding="UTF-8"?>
<svg id="Ebene_1" data-name="Ebene 1" xmlns="http://www.w3.org/2000/svg" viewBox="0 0 354.34 333.02">
  <defs>
    <style>
      .cls-1 {
        fill: #7d90b7;
      }

      .cls-2 {
        fill: #ffa39a;
      }

      .cls-3 {
        fill: #ffba9d;
      }

      .cls-4 {
        fill: #7c7c97;
      }

      .cls-5 {
        fill: #91798c;
      }
    </style>
  </defs>
  <path class="cls-1" d="m162.5,317.8c-1.49-2.59-2.55-5.18-6.03-4.42-.1-.86-.37-1.58-.24-2.23.62-3.07-1.22-4.49-3.54-5.74-2.09-1.13-4.1-2.39-6-3.5.97-2.83,1.79-5.5,2.85-8.08.29-.71,1.2-1.38,1.97-1.65,2.49-.87,2.15-2.26.85-3.83-.73-.89-1.82-1.53-2.4-2.49-.97-1.59-1.36-3.62-2.57-4.96-1.1-1.22-2.96-1.76-4.47-2.63-.2-.12-.35-.42-.42-.67-1.33-4.26-3.45-7.76-8.26-8.3-.05-.51-.14-.72-.07-.85q2.02-4-1.27-7.19c-2.03-1.98-4.14-3.9-5.99-6.04-2.03-2.33-4.77-2.8-7.48-3.63-1.33-.4-2.58-1.45-3.55-2.5-1.38-1.48-2.44-3.26-3.7-4.86-.35-.44-.96-.99-1.43-.98-2.35.05-2.65-1.26-2.79-3.24-.09-1.27-.8-2.73-1.69-3.67-1.54-1.63-1.56-3.14-.85-5.11.42-1.17.49-2.69.15-3.88-1.34-4.68-2.91-9.29-4.41-13.92-.4-1.25-.3-2.2,1.11-2.79,1.14-.48,2.3-1.03,3.27-1.78,1.19-.94,2.68-1.94,3.16-3.23,1.63-4.48,1.34-8.98-.37-13.5-1.36-3.62-2.32-7.4-3.26-11.15-.15-.59.63-1.52,1.15-2.15,1.44-1.76,3.02-3.41,4.46-5.16,1.71-2.07,1.63-4.56,1.73-7.08.06-1.49.45-3.31,1.39-4.36,4.94-5.54,5.63-9.6,1.81-15.86-1.65-2.71.75-4.05,1.49-5.86.73-1.78,2.27-.6,3.42-.04,2.71,1.31,5.41,2.65,8.2,4.03,1.46-1.38,2.86-2.72,4.28-4.05,1.38-1.29,2.76-2.57,3.8-3.53,1.48,1.77,2.8,3.02,3.69,4.53.64,1.07.82,2.47.97,3.75.16,1.28.03,2.59.03,4.1,2.04-.26,3.85.19,4.9-2.17.32-.71,2.47-1.02,3.68-.83,1.43.23,2.46.39,3.57-.81,2.18-2.36,4.55-.68,6.88-.14,1.19.27,2.46.18,3.67.37.8.12,1.79.21,2.31.72,1.51,1.47,2.72,3.24,4.25,4.68.67.64,1.81,1.04,2.75,1.08,1.6.07,2.7.47,3.31,2.08.64,1.67,2,2.09,3.78,2.33,4.58.62,11.46-.71,14.1-4.2,1.06-1.41,2.12-1.2,3.47-.48,3.05,1.63,2.6,2.69,5.69,4.23.39.19.89.38,1.28.3,3.49-.77,5.84,1.66,8.54,3.04,1.23.63,1.96,1.58,2.09,3.33.11,1.42,1.65,2.74,2.59,4.16-1.24,2.04-.74,3.73,1.19,6.02,1.68,2,3.12,4.26,4.35,6.57,1.41,2.65,2.25,5.62,3.79,8.17.74,1.23,2.45,1.95,3.84,2.67,1.08.56,2.32.97,3.53,1.07.8.07,2.05-.28,2.42-.87,1.02-1.6,1.69-3.43,2.67-5.54,3.45-1.34,8.96,1.79,9.67,5.97.07.43.19.87.34,1.28,1.7,4.62,2.06,4.7,5.54,1.15,3.04,4.24,7.77,3.95,12.07,3.93,1.79,0,3.82-1.99,5.28-3.51,1.52-1.59,4.97-2.87,6.87-1.86.16.08.39.16.43.29,1.72,5.2,6.4,7.72,10.15,11.13-1.42,3.19-2.83,6.33-4.22,9.49-.64,1.45-1.91,1.72-2.73.67-2.56-3.24-5.98-2.06-8.61-1.15-3.2,1.12-5.68.17-8.09-1.13-2.98-1.61-5.45-4.22-8.5-5.61-2.19-.99-4.96-.73-7.49-.84-.32-.01-.9,1.02-1.01,1.63-.98,5.45-.95,5.45-6.13,6.59-2.69.59-3.27,1.56-1.73,3.78,1.28,1.84,3.22,3.22,4.65,4.98,1.05,1.29,1.74,2.88,2.62,4.32,1.05,1.72,1.76,4.3,3.27,4.91,2.17.87,4.04-.97,5.23-3.13,1.21-2.22,4.87-1.38,6.87,1.17,2.31,2.95,1.58,5.65-.35,8.19-1.65,2.16-1.86,3.86.47,5.58,1.54,1.13,1.76,2.43.52,4.09-1.79,2.4-3.49,4.89-5.01,7.46-1.85,3.14-4.72,2.8-7.53,2.39-2.8-.41-4.57.92-3.28,3.33,1.74,3.25-.19,6.11.17,9.12.19,1.62.35,3.26.43,4.89.04.74-.28,1.51-.2,2.24.16,1.39.08,3.13.87,4.03.65.74,2.44.51,3.73.64.58.06,1.52-.3,1.69-.05.34.51.56,1.43.32,1.93-1.02,2.12-2.21,4.15-3.36,6.21-1.21,2.17-2.35,4.4-3.7,6.48-1.42,2.2-2.62,4.37-2.42,7.16.06.86-.48,1.92-1.05,2.65-1.85,2.36-3.6,4.88-5.83,6.84-2.53,2.23-3.57,4.68-3.21,7.96.2,1.85.24,3.66-2.07,4.69-.64.28-.61,2.13-.82,3.28-.22,1.18-.09,3.24-.58,3.39-1.99.61-3.92,2.76-6.3-.09-3.34-3.98-7.32-7.42-10.97-11.15-1.21-1.24-2.27-1.36-3.72-.37-1.97,1.34-4.04,2.58-6.17,3.63-.58.28-1.7-.04-2.31-.46-.68-.48-1.19-1.33-1.54-2.12-2.03-4.47-5.85-3.82-9.57-3.41-2.46.27-4.9.87-7.35.86-1.01,0-2.18-1.08-2.93-1.97-.37-.43.02-1.56.16-2.35.17-.95.92-2.44.58-2.73-1.12-.96-2.72-2.23-3.93-2.05-2.79.43-5.72.99-7.82,3.41-.58.67-2.09,1.23-2.81.94-2.34-.93-3.49-.04-4.4,1.98-.3.67-1.02,1.16-1.81,2Z"/>
  <path class="cls-2" d="m268.87,146.58c.5.76,1.46,2.22,2.5,3.8-1.05,1.62-3.41,2.99-1.66,5.64.16.24-.87,1.18-1.2,1.87-.42.89-1.25,2.28-.92,2.71,2.12,2.8,3.27,6.72,7.63,7.19.77.08,1.5.46,2.15.67.54,4.55-2.04,7.5-5.1,9.74-4.35,3.21-4.34,6.17-.03,10.73.17.19.3.41.44.61-3.25,4.19-6.32,5.2-11.24,3.43-.85-.3-1.45-1.44-2.04-2.28-1.91-2.71-1.88-2.73-4.32-.57-.25.22-.56.39-1.03.71-.22-.63-.42-1.09-.54-1.57-1.29-5.01-6.23-8.76-11.4-8.37-1.62.12-3.28.79-4.71,1.59-.53.3-.5,1.7-.58,2.61-.06.73.09,1.48.14,2.22-.82-.03-1.67.06-2.46-.11-2.82-.59-4.39-2.15-3.95-5.26.07-.48-.07-1.21-.4-1.49-3.76-3.19-4.71-8.22-7.77-11.85-.29-.34-.56-1.17-.39-1.37,1.76-1.96.28-2.93-1.08-4.02-.47-.38-1.22-1.09-1.11-1.41,1.54-4.85-3.12-4.76-5.29-6.36-2.04-1.5-3.44-1.78-5.81-2.84-.35-.15-.84-.7-.78-.93.46-1.74.84-3.57,1.73-5.09.2-.34,2.32.29,3.48.69,3.76,1.28,6.17,2.42,9.96,3.58.59.18,1.6-.84,2.33-1.42.98-.78,1.78-1.82,3.17-.5.31.29,1.35.1,1.88-.19,3.56-1.95,6.93-4.36,10.66-5.89,3.7-1.51,7.74-2.2,11.65-3.15.47-.11,1.28.24,1.62.64,1.59,1.9,3.62,2.27,5.98,2.28,1.19,0,2.42.76,3.57,1.31,1.46.69,2.85,1.51,4.89,2.61Z"/>
  <path class="cls-4" d="m204.73,150.86l.18-.71c.42-1.63.85-3.32,1.75-4.87.17-.29.38-.49.61-.66l-1.67-.81.39-1.9c.02-.1.03-.18.04-.25.05-.41.21-1.65,1.49-2.26,2.28-1.1,3.09-2.58,3.11-5.66.02-2.67,2.37-4.89,4.57-6.76.88-.75,1.14-1.44,1.11-2.96,0-.25-.02-.51-.03-.77-.07-1.4-.18-3.49,1.1-5.28-.63-.2-1.28-.38-1.96-.57-.54-.15-1.08-.3-1.64-.47-.37-.08-.72-.18-1.02-.32-.79-.28-1.49-.65-2.11-.98-.36-.19-.72-.39-1.09-.55-.68-.3-1.38-.55-2.08-.81-.44-.16-.87-.32-1.31-.49-.05-.02-.12-.04-.18-.06-.6-.19-2-.62-2.42-2.12-.22-.78-.96-1.53-1.82-2.4-1.46-1.48-3.41-3.45-3.35-6.59-3.57-1.63-4.52-4.91-5.23-7.35-.25-.85-.48-1.65-.78-2.33-1.79-3.98-.76-7.67.15-10.93.12-.41.23-.83.34-1.24l.07-.26s.03-.1.04-.15c-.04-.14-.06-.27-.09-.4-.61-.63-1.64-1-3.16-1.28-.86-.16-1.71-.79-2.51-.71-.81.08-1.7.64-2.3,1.24-.93.95-1.42,2.61-2.49,3.09-2.28,1.01-2.77,2.93-3.6,4.89-1.4,3.31-3.07,6.51-4.65,9.75-.1.21-.42.32-.61.5-1.63,1.54-3.21,3.14-4.89,4.62-1.46,1.3-1.55,2.34.06,3.64,1.41,1.14,2.07,2.49.73,4.39-1.17,1.65-1.03,3.45.63,5.03.7.67,1.17,1.77,1.36,2.74.41,2.08.01,4.52.95,6.27,1.53,2.85,3.86,5.26,6.64,8.89-.52.28-1.63.54-2.18,1.25-1.07,1.36-1.89,2.93-2.69,4.48-.45.88-.49,1.97-.99,2.81-.62,1.03-1.53,1.89-2.29,2.81q5.45,5.61,8.93,5.04c.9,1.22,1.49,2.74,2.59,3.35,2.76,1.53,8.36-.16,10.77-2.46,1.07-1.02,2.93-1.98,4.26-1.78,2.03.31,3.9,1.67,5.86,2.53.43.19.91.44,1.37.64-.03-.26-.03-.53.04-.8Z"/>
  <path class="cls-3" d="m166.9,142.13l.56-.67c.26-.31.54-.62.82-.93.4-.44.77-.86,1-1.2.04-.13.07-.27.11-.41.1-.37.23-.84.42-1.35.05-.69.34-1.47.77-1.95.12-.13.25-.25.37-.38.51-.95,1.09-1.96,1.79-2.95-1.66-2.05-3.11-3.87-4.27-6.04-1.07-1.99-1.17-4.07-1.25-5.74-.03-.68-.06-1.33-.15-1.79-.04-.19-.11-.36-.15-.45-2.83-2.77-3.45-6.48-1.73-9.75-1.36-1.34-2.06-2.86-2.1-4.52-.04-1.94.85-3.73,2.64-5.32.43-.38.85-.77,1.27-1.16.33-.38.69-.74,1.1-1.04.26-.25.52-.5.79-.76.54-.52,1.08-1.04,1.62-1.56.03-.03.06-.06.1-.09.25-.52.51-1.03.77-1.54,1.21-2.44,2.35-4.73,3.36-7.1.1-.23.19-.46.28-.69.74-1.84,1.83-4.56,4.96-6.23.06-.09.12-.19.17-.28.31-.52.7-1.13,1.22-1.75.54-1.8,1.5-2.6,3.08-2.33.69-.32,1.48-.58,2.36-.67,1.6-.16,2.87.36,3.63.68.09.04.17.07.26.11.71.13,1.49.32,2.28.6.64-.27,1.29-.6,1.96-.94,1.04-.53,1.5-2.27,2.12-3.51.43-.86.44-2.17,1.1-2.63,1.7-1.21,3.67-2.03,5.49-3.07.6-.34,1.5-.83,1.57-1.34.39-3.1,3.04-3,5.5-3.18,1.85-.14,2.51-1.99,1.27-3.35-2.28-2.52-2.46-5.05-.73-7.91.31-.52.41-1.65.08-1.99-1.74-1.8-3.4-3.95-5.57-4.99-3.11-1.49-3.71-1.68-2.91-5.07.53-2.24,1.4-4.39,2.15-6.57.43-1.24.52-2.5-1.02-2.76-2.08-.35-2.98-1.73-3.72-3.4-.87-1.95-1.55-4.02-2.65-5.82-.6-.99-1.83-1.71-2.92-2.25-1.38-.68-3-.89-4.36-1.6-3.27-1.7-5.78-1.05-7.43,2.12-1.39,2.67-2.25,2.97-4.81,1.41-1.35-.82-2.47-2.02-3.83-2.82-1.31-.77-2.77-1.68-4.21-1.78-4.71-.33-4.72-.2-3.64-4.65.03-.11-.17-.28-.38-.6-4.07,1.74-8.19,3.47-12.27,5.27-2.19.96-4.28,2.23-6.71.5-.44-.31-1.36-.22-1.95-.02-2.69.93-5.23,1.29-7.97-.17-2.29-1.23-3.65-.33-4.85,1.99-.33.65-1.79,1.27-2.48,1.06-1.47-.44-2.86-1.31-4.14-2.21-1.81-1.26-3.41-2.97-6.11-1.32-.31-1.73-.56-3.15-.82-4.61-1.32,1.04-2.47,1.94-3.9,3.07-.37-1.54-.65-2.7-1.01-4.18-1.11.37-2.06.8-3.06.98-.81.15-1.9.35-2.46-.05-1.76-1.27-3.19-3.01-5.01-4.16-1.16-.73-2.79-.98-4.19-.92-.51.02-1.18,1.47-1.41,2.37-.65,2.45-2.11,3.29-4.37,2.54-.68-.22-1.75-.04-2.35.38-3.67,2.56-4.4,2.53-6.92-.73-.24.03-.51.02-.76.1-4.16,1.36-8.31,2.74-12.48,4.07-.48.15-1.11.14-1.58-.04-1.74-.64-3.59-1.17-5.14-2.15-1.76-1.12-2.68-.03-3.6.97-.48.52-.56,1.41-1.04,2.75-2.81-3.83-6.56-2.94-10.1-2.99-.89-.01-1.79-.04-2.67,0-1.86.1-3.11-.38-3.11-2.61,0-.68-.45-1.64-1-1.99-3.3-2.09-6.69-4.04-10.07-6.05-1.28,1.15-2.41,2.78-3.95,3.4-2.11.85-4.52,1.15-6.81,1.21-.78.02-1.56-1.45-2.4-2.17-.44-.37-1.06-.86-1.54-.8-1.81.21-3.68.4-5.39,1-2.57.91-4.7,2.99-7.89,1.01C2.61,2.46-.23,4.72.01,6.57c.54,4.12,1.26,8.25,1.27,12.38,0,3.4,1.38,5.69,4.3,6.5,1.38.38,3.54-.68,4.84-1.72,2.5-1.99,4.46-.7,6.15.77.86.76.88,2.49,1.27,3.78.21.47,1.08.53,1.95.54,4.24.05,5.62,1.38,5.67,5.54.02,2.14-.2,4.3.07,6.41.28,2.28,1,4.5,1.53,6.75.19.15.39.29.58.44,1.4-4.09,3.91-3.39,6.56-2.14,1.6.75,3.2,1.51,4.85,2.14.69.27,1.59.5,2.24.29,2.36-.76,4.75-1.55,6.96-2.65,2.36-1.18,3.71-.56,5.07,1.56,1.25,1.96,2.77,3.82,4.49,5.37,2.05,1.85,4.43,3.32,7.08,5.25-4.4,3.67-7.82,7.32-7.64,13.12.7.05,1.67-.1,2.4.25,1,.47,2.26,1.13,2.65,2.04,2.18,5.06,2.1,5.09-2.77,8.2-.3.19-.6.39-.87.63-2.62,2.29-2.57,5.69.41,7.3,5.87,3.18,12.34,2.56,18.65,2.2,3.06-.18,6.07-1.19,9.11-1.77,4.82-.91,4.83-.99,5.01-5.99.05-1.33.35-2.94,1.16-3.89,2.2-2.56,4.68-4.9,7.14-7.22,2.55-2.41,8.22-1.01,9.51,2.29.12.31.2.74.08,1.04-.67,1.66-1.4,3.3-2.17,5.07-.86-.36-1.71-.71-3.07-1.28.14,1.22,0,2.15.37,2.77,1.26,2.14.99,3.87-.56,5.82-1.96,2.48-1.33,5.35,1.19,7.08,2.88,1.98,3.03,3.83.73,6.46-.74.84-1.69,2.13-1.51,3,.38,1.87,1.18,3.8,2.33,5.29.52.67,2.33.32,3.54.5.6.09,1.32.15,1.76.51,3.79,3.04,7.69,5.97,11.22,9.3,1.38,1.3,2.56,1.94,4.36,1.94,5.14,0,7.42,2.14,7.74,7.25.09,1.49.53,2.38,2.16,2.37,1.82,0,2.82.98,3.61,2.61,1.28,2.63,2.79,5.15,4.35,7.62.37.58,1.41,1.14,2.07,1.06,2.05-.24,4.06-.79,6.09-1.23.15.31.3.62.45.94.87-1.13,1.74-2.25,2.61-3.38l.14.83c2.99.56,5.97,1.37,8.99,1.61.27.02.52,0,.76-.02Z"/>
  <path class="cls-5" d="m352.61,161.47c-2.83-1.69-2.82-1.72-.92-3.68-.54-2.85-1.38-5.14-1.33-7.42.09-4.47-1.47-8.37-3.5-12.12-1.02-1.89-1.06-3.29.6-4.7.75-.63,1.43-1.34,2.12-2.03q2.76-2.74.38-5.59c-.34-.41-.74-.85-.87-1.34-1.06-4.08-2.78-8.16-2.92-12.28-.18-5.38-2.44-8.74-7.03-10.85-1.7-.79-3.76-1.99-5.34-1.63-5.59,1.28-11.09,3.01-16.51,4.9-1.79.62-2.71.18-3.58-1.1-1.63-2.43-3.18-4.92-4.79-7.37-.92-1.4-1.87-2.77-2.86-4.23,4.49-1.6,4.43-1.67,5.28-3.21.84-1.52,1.96-2.88,2.82-4.38.35-.61.55-1.45.48-2.15-.24-2.67.71-3.97,3.4-4.31,1.76-.22,3.53-.39,5.3-.61,1.58-.2,2.77-1.14,2.04-2.67-1.43-2.99.25-3.19,2.43-3.17,1.83.01,2.28-.73,1.81-2.53-1.23-4.71-3.53-8.59-7.87-11.05-1.83-1.04-1.53-2.25-.2-3.37,2.02-1.71,2.26-3.39.94-5.82-2-3.66.81-5.81,3.09-8.15,1.55-1.59,2.9-1.2,4.55-.47,1.5.67,2.44.34,3.35-1.36,1.08-2.01.18-3.52-.83-4.59-2.01-2.13-3-4.17-.88-7.07-1.57-.4-2.7-.57-3.74-.99-.65-.27-1.36-.8-1.67-1.4-.79-1.53-1.01-3.48-2.1-4.71-2.22-2.53-2.5-5.36-2.38-8.46.04-1.11.1-2.62-.53-3.3-2.49-2.65-5.19-5.12-7.97-7.46-.71-.6-2.04-.47-3.09-.67,1.51,2.99,1.97,5.92.37,7.87-1.49,1.83-4.34,2.55-6.65,3.79,1.03,3.8.78,4.48-2.96,6.18-2.96,1.35-5.95,2.7-9.02,3.74-2.49.84-5.16,1.15-7.72,1.84-1.73.47-3.4,1.17-5.09,1.81-.57.21-1.08.63-1.66.78-4.19,1.14-7.79,3.17-9.76,7.18-.93,1.89-2.09,2.21-3.85,1.65-2.45-.78-4.7-1.07-7.13.55-3.86,2.59-7.95,4.7-7.74,10.39.04,1-1.51,2.32-2.63,2.99-.47.28-1.76-.71-2.61-1.23-.6-.37-1-1.14-1.62-1.34-.57-.18-1.38.05-1.94.36-.25.14-.33.96-.2,1.38.83,2.69,1.67,5.37,2.64,8.01.95,2.58.07,4.07-2.69,4.36-1.13.12-2.34.16-3.36.59-1.89.81-3.4.6-4.56-1.11-2.66,1.91-2.82,1.87-3.84-1.17-.63-1.88-1.42-3.02-3.63-1.71-1.2.71-2.62,1.08-3.97,1.5-1.84.58-3.61.9-5.05-1.02-.65-.87-1.68-1.45-2.64-2.24.81,2.14,1.53,4.06,2.49,6.59-1.77.46-3.32.83-4.86,1.27-.8.23-2.16.4-2.27.85-.67,2.62-2.72,3.01-4.83,3.44-2.81.58-4.45,2.47-4.52,5.33-.03,1.47-.11,2.69-1.8,3.46-.68.31-1.31.78-1.66,1.41l.56.58.22.94c.02.09.04.18.06.27l.29.92-.4,1.36c-.11.4-.22.82-.34,1.24-.83,2.97-1.61,5.75-.34,8.57.41.9.68,1.86.95,2.79.73,2.53,1.36,4.25,3.32,5.15l2.09.95-.04,2.3c-.03,1.55.91,2.62,2.34,4.07,1.03,1.04,2.08,2.11,2.6,3.57.07.02.15.05.21.07.14.04.26.08.36.12.46.18.88.33,1.29.49.8.3,1.54.57,2.26.88.43.19.84.4,1.26.63l.09.05c.58.31,1.09.58,1.61.76l.36.15h0s.07.02.21.05l.3.08c.52.16,1.04.31,1.55.45.72.2,1.43.39,2.1.61l4.59,1.47-2.81,3.91c-.57.79-.5,1.99-.45,3.06v.1c.02.26.03.51.04.77.04,1.81-.21,3.9-2.35,5.71-.99.84-3.32,2.82-3.33,4.11-.02,2.74-.53,6.09-4.16,8.28l.68.5c1.33.13,2.68.59,3.79.97,1.66.56,3.04,1.1,4.39,1.61,1.28.49,2.5.96,3.87,1.42.09-.08.18-.15.27-.22.09-.07.18-.15.27-.22,2.51-2.12,4.66-2.03,6.23-1.34.85-.49,1.71-1.01,2.6-1.55,2.38-1.44,4.84-2.92,7.57-4.04,3.11-1.27,6.32-1.99,9.42-2.69.94-.21,1.87-.42,2.8-.65,2.18-.53,4.48.59,5.63,1.96.41.49.86.84,2.93.85,1.9.01,3.51.82,4.68,1.41.2.1.39.2.58.29,1.1.52,2.12,1.09,3.3,1.74.54.3,1.12.62,1.77.97l.89.48,1.21,1.84c.06.03.12.05.18.08,1.28.51,1.27,1.03.9,1.56l2.2,3.35-1.42,2.19c-.39.6-.81,1.08-1.18,1.52-.06.07-.14.16-.21.25.77,1.6.42,3.29-1.01,5.08-.08.11-.18.21-.25.32-.03.07-.06.13-.1.2.15.24.29.47.43.7,1.47,2.39,2.04,3.05,3.24,3.18,1.06.11,1.92.45,2.55.69.14.05.27.11.4.15l2.44.79.3,2.55c.92,7.82-4.81,12.05-6.7,13.43-1.47,1.08-1.63,1.64-1.64,1.65,0,0,0,.84,2.14,3.11.35.38.59.74.74.95l1.04,1.45c.1.02.21.04.31.05,1.42.13,2.38-.38,3.8-.48,2.37-.17,3.83.51,3.58,3.23-.05.59,0,1.49.37,1.77,3.33,2.48,6.46,5.56,10.22,7.04,3.48,1.37,7.64,1.01,11.5,1.35,5.35.48,10.65.47,15.36,4.12,2.99,2.32,6.86,3.64,10.51,4.92,3.12,1.09,5.08-.13,6.42-3.24,2.67-6.18,5.29-12.39,7.93-18.58.81-1.89,1.71-3.79-1.34-5.45,2.19-1.57,3.91-3.04,5.85-4.1,1.42-.78,1.75-1.4,1.45-3.09-.64-3.54-1.48-7.32.72-10.6,1.36-2.02.76-2.99-.98-4.03Z"/>
</svg>