<?xml version="1.0" encoding="utf-8"?>
<!-- Generator: Adobe Illustrator 27.3.1, SVG Export Plug-In . SVG Version: 6.00 Build 0)  -->
<svg version="1.1" id="Ebene_1" xmlns="http://www.w3.org/2000/svg" xmlns:xlink="http://www.w3.org/1999/xlink" x="0px" y="0px"
	 viewBox="0 0 358.2 337.5" style="enable-background:new 0 0 358.2 337.5;" xml:space="preserve">
<style type="text/css">
	.st0{fill:none;stroke:#4F4F4F;stroke-width:2;stroke-miterlimit:10;}
</style>
<path class="st0" d="M166.1,320.6c-1.5-2.6-2.5-5.1-6-4.4c-0.1-0.9-0.4-1.6-0.2-2.2c0.6-3-1.2-4.5-3.5-5.7c-2.1-1.1-4.1-2.4-5.9-3.5
	c1-2.8,1.8-5.5,2.8-8c0.3-0.7,1.2-1.4,1.9-1.6c2.5-0.9,2.1-2.2,0.8-3.8c-0.7-0.9-1.8-1.5-2.4-2.5c-1-1.6-1.4-3.6-2.6-4.9
	c-1.1-1.2-2.9-1.7-4.4-2.6c-0.2-0.1-0.4-0.4-0.4-0.7c-1.3-4.2-3.4-7.7-8.2-8.2c-0.1-0.5-0.1-0.7-0.1-0.8c1.3-2.6,0.9-5-1.3-7.1
	c-2-2-4.1-3.9-5.9-6c-2-2.3-4.7-2.8-7.4-3.6c-1.3-0.4-2.6-1.4-3.5-2.5c-1.4-1.5-2.4-3.2-3.7-4.8c-0.3-0.4-0.9-1-1.4-1
	c-2.3,0.1-2.6-1.2-2.8-3.2c-0.1-1.3-0.8-2.7-1.7-3.6c-1.5-1.6-1.5-3.1-0.8-5.1c0.4-1.2,0.5-2.7,0.1-3.9c-1.3-4.6-2.9-9.2-4.4-13.8
	c-0.4-1.2-0.3-2.2,1.1-2.8c1.1-0.5,2.3-1,3.2-1.8c1.2-0.9,2.7-1.9,3.1-3.2c1.6-4.4,1.3-8.9-0.4-13.4c-1.3-3.6-2.3-7.3-3.2-11.1
	c-0.2-0.6,0.6-1.5,1.1-2.1c1.4-1.7,3-3.4,4.4-5.1c1.7-2.1,1.6-4.5,1.7-7c0.1-1.5,0.4-3.3,1.4-4.3c4.9-5.5,5.6-9.5,1.8-15.7
	c-1.6-2.7,0.8-4,1.5-5.8c0.7-1.8,2.2-0.6,3.4,0c2.7,1.3,5.4,2.6,8.1,4c1.4-1.4,2.8-2.7,4.2-4c1.4-1.3,2.7-2.6,3.8-3.5
	c1.5,1.8,2.8,3,3.7,4.5c0.6,1.1,0.8,2.4,1,3.7s0,2.6,0,4.1c2-0.3,3.8,0.2,4.9-2.1c0.3-0.7,2.4-1,3.6-0.8c1.4,0.2,2.4,0.4,3.5-0.8
	c2.2-2.3,4.5-0.7,6.8-0.1c1.2,0.3,2.4,0.2,3.6,0.4c0.8,0.1,1.8,0.2,2.3,0.7c1.5,1.5,2.7,3.2,4.2,4.6c0.7,0.6,1.8,1,2.7,1.1
	c1.6,0.1,2.7,0.5,3.3,2.1c0.6,1.7,2,2.1,3.8,2.3c4.6,0.6,11.4-0.7,14-4.2c1.1-1.4,2.1-1.2,3.4-0.5c3,1.6,2.6,2.7,5.6,4.2
	c0.4,0.2,0.9,0.4,1.3,0.3c3.5-0.8,5.8,1.6,8.5,3c1.2,0.6,1.9,1.6,2.1,3.3c0.1,1.4,1.6,2.7,2.6,4.1c-1.2,2-0.7,3.7,1.2,6
	c1.7,2,3.1,4.2,4.3,6.5c1.4,2.6,2.2,5.6,3.8,8.1c0.7,1.2,2.4,1.9,3.8,2.6c1.1,0.6,2.3,1,3.5,1.1c0.8,0.1,2-0.3,2.4-0.9
	c1-1.6,1.7-3.4,2.6-5.5c3.4-1.3,8.9,1.8,9.6,5.9c0.1,0.4,0.2,0.9,0.3,1.3c1.7,4.6,2,4.7,5.5,1.1c3,4.2,7.5,2.8,11.8,2.8
	c1.8,0,3.8-2,5.2-3.5c1.5-1.6,4.9-2.9,6.8-1.9c0.1,0.1,0.4,0.2,0.4,0.3c1.7,5.2,6.5,8.8,10.2,12.1c-1.4,3.2-2.8,6.3-4.2,9.4
	c-0.6,1.4-1.9,1.7-2.7,0.7c-2.5-3.2-5.9-2.1-8.5-1.1c-3.2,1.1-5.6,0.2-8-1.1c-3-1.6-5.4-4.2-8.4-5.6c-2.2-1-4.9-0.7-7.4-0.8
	c-0.3,0-0.9,1-1,1.6c-1,5.4-0.9,5.4-6.1,6.5c-2.7,0.6-3.2,1.5-1.7,3.8c1.3,1.8,3.2,3.2,4.6,4.9c1.1,1.3,1.7,2.9,2.6,4.3
	c1,1.7,1.8,4.3,3.2,4.9c2.2,0.9,4-1,5.2-3.1c1.2-2.2,4.8-1.4,6.8,1.2c2.3,2.9,1.6,5.6-0.4,8.1c-1.6,2.1-1.9,3.8,0.5,5.5
	c1.5,1.1,1.7,2.4,0.5,4.1c-1.8,2.4-3.5,4.9-5,7.4c-1.8,3.1-4.7,2.8-7.5,2.4s-4.5,0.9-3.2,3.3c1.7,3.2-0.2,6.1,0.2,9
	c0.2,1.6,0.3,3.2,0.4,4.9c0,0.7-0.3,1.5-0.2,2.2c0.2,1.4,0.1,3.1,0.9,4c0.6,0.7,2.4,0.5,3.7,0.6c0.6,0.1,1.5-0.3,1.7,0
	c0.3,0.5,0.6,1.4,0.3,1.9c-1,2.1-2.2,4.1-3.3,6.2c-1.2,2.2-2.3,4.4-3.7,6.4c-1.4,2.2-2.6,4.3-2.4,7.1c0.1,0.9-0.5,1.9-1,2.6
	c-1.8,2.4-3.6,4.9-5.8,6.8c-2.5,2.2-3.5,4.6-3.2,7.9c0.2,1.8,0.2,3.6-2.1,4.6c-0.6,0.3-0.6,2.1-0.8,3.2c-0.2,1.2-0.1,3.2-0.6,3.4
	c-2,0.6-3.9,2.7-6.3-0.1c-3.3-4-7.3-7.4-10.9-11.1c-1.2-1.2-2.2-1.4-3.7-0.4c-2,1.3-4,2.6-6.1,3.6c-0.6,0.3-1.7,0-2.3-0.5
	c-0.7-0.5-1.2-1.3-1.5-2.1c-2-4.4-5.8-3.8-9.5-3.4c-2.4,0.3-4.9,0.9-7.3,0.9c-1,0-2.2-1.1-2.9-2c-0.4-0.4,0-1.5,0.2-2.3
	c0.2-0.9,0.9-2.4,0.6-2.7c-1.1-1-2.7-2.2-3.9-2c-2.8,0.4-5.7,1-7.8,3.4c-0.6,0.7-2.1,1.2-2.8,0.9c-2.3-0.9-3.5,0-4.4,2
	C167.7,319.3,167,319.8,166.1,320.6L166.1,320.6z"/>
<path class="st0" d="M270.6,148.1c0.5,0.7,1.4,2.2,2.5,3.7c-1,1.6-3.3,2.9-1.6,5.5c0.2,0.2-0.9,1.2-1.2,1.8
	c-0.4,0.9-1.2,2.2-0.9,2.6c2.1,2.7,3.2,6.6,7.5,7c0.8,0.1,1.5,0.4,2.1,0.7c0.5,4.4-2,7.3-5,9.5c-4.3,3.1-4.2,6,0,10.5
	c0.2,0.2,0.3,0.4,0.4,0.6c-3.2,4.1-6.2,5.1-11,3.4c-0.8-0.3-1.4-1.4-2-2.2c-1.9-2.6-1.8-2.7-4.2-0.6c-0.2,0.2-0.5,0.4-1,0.7
	c-0.2-0.6-0.4-1.1-0.5-1.5c-1.3-4.9-6.1-8.6-11.2-8.2c-1.6,0.1-3.2,0.8-4.6,1.6c-0.5,0.3-0.5,1.7-0.6,2.6c-0.1,0.7,0.1,1.4,0.1,2.2
	c-0.8,0-1.6,0.1-2.4-0.1c-2.8-0.6-4.3-2.1-3.9-5.1c0.1-0.5-0.1-1.2-0.4-1.5c-3.7-3.1-4.6-8-7.6-11.6c-0.3-0.3-0.6-1.1-0.4-1.3
	c1.7-1.9,0.3-2.9-1.1-3.9c-0.5-0.4-1.2-1.1-1.1-1.4c1.5-4.8-3.1-4.7-5.2-6.2c-2-1.5-3.4-1.7-5.7-2.8c-0.3-0.1-0.8-0.7-0.8-0.9
	c0.4-1.7,0.8-3.5,1.7-5c0.2-0.3,2.3,0.3,3.4,0.7c3.7,1.2,6,2.4,9.8,3.5c0.6,0.2,1.6-0.8,2.3-1.4c1-0.8,1.7-1.8,3.1-0.5
	c0.3,0.3,1.3,0.1,1.8-0.2c3.5-1.9,6.8-4.3,10.4-5.8c3.6-1.5,7.6-2.1,11.4-3.1c0.5-0.1,1.3,0.2,1.6,0.6c1.6,1.9,3.5,2.2,5.9,2.2
	c1.2,0,2.4,0.8,3.5,1.3C267.2,146.2,268.6,147,270.6,148.1L270.6,148.1z"/>
<path class="st0" d="M206.9,152.2l0.2-0.7c0.4-1.6,0.9-3.3,1.8-4.9c0.2-0.3,0.4-0.5,0.6-0.7l-1.7-0.8l0.4-1.9c0-0.1,0-0.2,0-0.2
	c0.1-0.4,0.3-2.6,1.6-3.3c2.3-1.1,3-1.6,3-4.7c0-2.7,2.4-4.9,4.6-6.8c0.9-0.8,1.1-1.4,1.1-3c0-0.2,0-0.5,0-0.8
	c-0.1-1.4-0.2-3.5,1.1-5.3c-0.6-0.2-1.3-0.4-2-0.6c-0.5-0.2-1.1-0.3-1.6-0.5c-0.4-0.1-0.7-0.2-1-0.3c-0.8-0.3-1.5-0.7-2.1-1
	c-0.4-0.2-0.7-0.4-1.1-0.6c-0.7-0.3-1.4-0.6-2.1-0.8c-0.4-0.2-0.9-0.3-1.3-0.5c-0.1,0-0.1,0-0.2-0.1c-0.6-0.2-2-0.6-2.4-2.1
	c-0.2-0.8-1-1.5-1.8-2.4c-1.5-1.5-3.4-3.4-3.4-6.6c-3.6-1.6-4.5-4.9-5.2-7.3c-0.2-0.8-0.5-1.7-0.8-2.3c-1.8-4-0.8-7.7,0.1-10.9
	c0.1-0.4,0.2-0.8,0.3-1.2l0.1-0.3c0,0,0-0.1,0-0.2c0-0.1-0.1-0.3-0.1-0.4c-0.6-0.6-1.6-1-3.2-1.3c-0.9-0.2-1.7-0.8-2.5-0.7
	c-0.8,0.1-1.7,0.6-2.3,1.2c-0.9,0.9-1.4,2.6-2.5,3.1c-2.3,1-2.8,2.9-3.6,4.9c-1.4,3.3-3.1,6.5-4.6,9.8c-0.1,0.2-0.4,0.3-0.6,0.5
	c-1.6,1.5-3.2,3.1-4.9,4.6c-1.5,1.3-1.6,2.3,0.1,3.6c1.4,1.1,2.1,2.5,0.7,4.4c-1.2,1.7-1,3.4,0.6,5c0.7,0.7,1.2,1.8,1.4,2.7
	c0.4,2.1,0,4.5,0.9,6.3c1.5,2.8,3.9,5.3,6.6,8.9c-0.5,0.3-1.6,0.5-2.2,1.2c-1.1,1.4-1.9,2.9-2.7,4.5c-0.4,0.9-0.5,2-1,2.8
	c-0.6,1-1.5,1.9-2.3,2.8c3.6,3.7,6.6,5.4,8.9,5c0.9,1.2,1.5,2.7,2.6,3.4c2.8,1.5,8.4-0.2,10.8-2.5c1.1-1,2.9-2,4.3-1.8
	c2,0.3,3.9,1.7,5.9,2.5c0.4,0.2,0.9,0.4,1.4,0.6C206.8,152.8,206.8,152.5,206.9,152.2L206.9,152.2z"/>
<path class="st0" d="M167,141.7l0.6-0.7c0.3-0.3,0.5-0.6,0.8-0.9c0.4-0.4,0.8-0.9,1-1.2c0-0.1,0.1-0.3,0.1-0.4
	c0.1-0.4,0.2-0.8,0.4-1.3c0.1-0.7,0.3-1.4,0.8-1.9c0.1-0.1,0.2-0.2,0.4-0.4c0.5-0.9,1.1-1.9,1.8-2.9c-1.6-2-3.1-3.8-4.2-6
	c-1.1-2-1.1-4-1.2-5.7c0-0.7-0.1-1.3-0.1-1.8c0-0.2-0.1-0.4-0.1-0.4c-2.8-2.7-3.4-6.4-1.7-9.6c-1.3-1.3-2-2.8-2.1-4.5
	c0-1.9,0.8-3.7,2.6-5.2c0.4-0.4,0.8-0.8,1.2-1.2c0.3-0.4,0.7-0.7,1.1-1c0.3-0.2,0.5-0.5,0.8-0.8c0.5-0.5,1.1-1,1.6-1.5
	c0,0,0.1-0.1,0.1-0.1c0.2-0.5,0.5-1,0.8-1.5c1.2-2.4,2.3-4.7,3.3-7c0.1-0.2,0.2-0.5,0.3-0.7c0.7-1.8,1.8-4.5,4.9-6.2
	c0.1-0.1,0.1-0.2,0.2-0.3c0.3-0.5,0.7-1.1,1.2-1.7c0.5-1.8,1.5-2.6,3-2.3c0.7-0.3,1.5-0.6,2.3-0.7c1.6-0.2,2.8,0.4,3.6,0.7
	c0.1,0,0.2,0.1,0.3,0.1c0.7,0.1,1.5,0.3,2.2,0.6c0.6-0.3,1.3-0.6,1.9-0.9c1-0.5,1.5-2.2,2.1-3.5c0.4-0.8,0.4-2.1,1.1-2.6
	c1.7-1.2,3.6-2,5.4-3c0.6-0.3,1.5-0.8,1.6-1.3c0.4-3.1,3-3,5.4-3.1c1.8-0.1,2.5-2,1.3-3.3c-2.2-2.5-2.4-5-0.7-7.8
	c0.3-0.5,0.4-1.6,0.1-2c-1.7-1.8-3.4-3.9-5.5-4.9c-3.1-1.5-3.7-1.7-2.9-5c0.5-2.2,1.4-4.3,2.1-6.5c0.4-1.2,0.5-2.5-1-2.7
	c-2.1-0.3-2.9-1.7-3.7-3.4c-0.9-1.9-1.5-4-2.6-5.8c-0.6-1-1.8-1.7-2.9-2.2c-1.4-0.7-3-0.9-4.3-1.6c-3.2-1.7-5.7-1-7.3,2.1
	c-1.4,2.6-2.2,2.9-4.8,1.4c-1.3-0.8-2.4-2-3.8-2.8c-1.3-0.8-2.7-1.7-4.2-1.8c-4.6-0.3-4.7-0.2-3.6-4.6c0-0.1-0.2-0.3-0.4-0.6
	c-4,1.7-8.1,3.4-12.1,5.2c-2.2,0.9-4.2,2.2-6.6,0.5c-0.4-0.3-1.3-0.2-1.9,0c-2.7,0.9-5.2,1.3-7.9-0.2c-2.3-1.2-3.6-0.3-4.8,2
	c-0.3,0.6-1.8,1.2-2.4,1c-1.4-0.4-2.8-1.3-4.1-2.2c-1.8-1.2-2.6-3-6.4-2.7c-3.8,0.9-3.3-5.4-5.3-4.2c-1.1,0.4-2,0.8-3,1
	c-0.8,0.1-1.9,0.3-2.4-0.1c-1.7-1.2-3.2-3-4.9-4.1c-1.1-0.7-2.8-1-4.1-0.9c-0.5,0-1.2,1.5-1.4,2.3c-0.6,2.4-2.1,3.2-4.3,2.5
	c-0.7-0.2-1.7,0-2.3,0.4c-3.6,2.5-4.3,2.5-6.8-0.7c-0.2,0-0.5,0-0.8,0.1c-4.1,1.3-8.2,2.7-12.3,4c-0.5,0.1-1.1,0.1-1.6,0
	c-1.7-0.6-3.6-1.1-5.1-2.1c-1.7-1.1-2.6,0-3.6,1c-0.5,0.5-0.5,1.4-1,2.7c-2.8-3.8-6.5-2.9-10-2.9c-0.9,0-1.8,0-2.6,0
	c-1.8,0.1-3.1-0.4-3.1-2.6c0-0.7-0.5-1.6-1-2c-3.3-2.1-6.6-4-9.9-6c-1.3,1.1-2.4,2.8-3.9,3.4c-2.1,0.8-4.5,1.1-6.7,1.2
	c-0.8,0-1.5-1.4-2.4-2.1c-0.4-0.4-1-0.9-1.5-0.8c-1.8,0.2-3.6,0.4-5.3,1c-2.5,0.9-4.6,3-7.8,1C4.8,3.8,2,6,2.2,7.9
	c0.5,4.1,1.2,8.1,1.2,12.2c0,3.4,1.4,5.6,4.2,6.4c1.4,0.4,3.5-0.7,4.8-1.7c2.5-2,4.4-0.7,6.1,0.8c0.9,0.8,0.9,2.5,1.3,3.7
	c0.2,0.5,1.1,0.5,1.9,0.5c4.2,0,5.5,1.4,5.6,5.5c0,2.1-0.2,4.2,0.1,6.3c0.3,2.2,1,4.5,1.5,6.7c0.2,0.1,0.4,0.3,0.6,0.4
	c1.4-4,3.9-3.3,6.5-2.1c1.6,0.7,3.2,1.5,4.8,2.1c0.7,0.3,1.6,0.5,2.2,0.3c2.3-0.8,4.7-1.5,6.9-2.6c2.3-1.2,3.7-0.6,5,1.5
	c1.2,1.9,2.7,3.8,4.4,5.3c2,1.8,4.4,3.3,7,5.2c-4.3,3.6-7.7,7.2-7.5,13c0.7,0.1,1.7-0.1,2.4,0.2c1,0.5,2.2,1.1,2.6,2
	c2.2,5,2.1,5-2.7,8.1c-0.3,0.2-0.6,0.4-0.8,0.6c-2.6,2.3-2.5,5.6,0.4,7.2c5.8,3.1,12.2,2.5,18.4,2.2c3-0.2,6-1.2,9-1.8
	c4.8-0.9,4.8-1,4.9-5.9c0.1-1.3,0.3-2.9,1.2-3.8c2.2-2.5,4.6-4.8,7.1-7.1c2.5-2.4,8.1-1,9.4,2.3c0.1,0.3,0.2,0.7,0.1,1
	c-0.7,1.6-0.6,2.1-1.3,3.8c-0.8-0.3-1.6-0.5-2.9,0.2c-2,1-1.3,3.1-1,3.7c0.9,2.3,1.4,2.6-0.1,4.5c-1.9,2.4-1.3,5.3,1.2,7
	c2.8,2,3,3.8,0.7,6.4c-0.7,0.8-1.7,2.1-1.5,3c0.4,1.8,1.2,3.8,2.3,5.2c0.5,0.7,2.3,0.3,3.5,0.5c0.6,0.1,1.3,0.2,1.7,0.5
	c3.8,3,7.6,5.9,11.1,9.2c1.4,1.3,2.5,1.9,4.3,1.9c5.1,0,7.3,2.1,7.6,7.2c0.1,1.5,0.5,2.4,2.1,2.3c1.8,0,2.8,1,3.6,2.6
	c1.3,2.6,3.5,5.3,5.1,7.7c0.4,0.6,1.4,1.1,2,1.1c2-0.2,3.2-0.9,5.2-1.4c1.4-0.9,2-1.3,3.2-1.6c1.6-0.4,5.9,1.4,8.9,1.6
	C166.6,141.8,167,141.7,167,141.7z"/>
<path class="st0" d="M354.8,160.8c-2.8-1.7-2.8-1.7-0.9-3.6c-0.5-2.8-1.4-5.1-1.3-7.3c0.1-4.4-1.5-8.3-3.5-12c-1-1.9-1-3.2,0.6-4.6
	c0.7-0.6,1.4-1.3,2.1-2c1.8-1.8,1.9-3.6,0.4-5.5c-0.3-0.4-0.7-0.8-0.9-1.3c-1-4-2.7-8.1-2.9-12.1c-0.2-5.3-2.4-8.6-6.9-10.7
	c-1.7-0.8-3.7-2-5.3-1.6c-5.5,1.3-11,3-16.3,4.8c-1.8,0.6-2.7,0.2-3.5-1.1c-1.6-2.4-3.1-4.8-4.7-7.3c-0.9-1.4-1.9-2.7-2.8-4.2
	c4.4-1.6,4.4-1.7,5.2-3.2c0.8-1.5,1.9-2.8,2.8-4.3c0.4-0.6,0.5-1.4,0.5-2.1c-0.2-2.6,0.7-3.9,3.4-4.2c1.7-0.2,3.5-0.4,5.2-0.6
	c1.6-0.2,2.7-1.1,2-2.6c-1.4-3,0.2-3.2,2.4-3.1c1.8,0,2.3-0.7,1.8-2.5c-1.2-4.7-3.5-8.5-7.8-10.9c-1.8-1-1.5-2.2-0.2-3.3
	c2-1.7,2.2-3.3,0.9-5.8c-2-3.6,0.8-5.7,3-8c1.5-1.6,2.9-1.2,4.5-0.5c1.5,0.7,2.4,0.3,3.3-1.3c1.1-2,0.2-3.5-0.8-4.5
	c-2-2.1-3-4.1-0.9-7c-1.5-0.4-2.7-0.6-3.7-1c-0.6-0.3-1.4-0.8-1.6-1.4c-0.8-1.5-1-3.4-2.1-4.6c-2.2-2.5-2.5-5.3-2.3-8.4
	c0-1.1,0.1-2.6-0.5-3.3c-2.5-2.6-5.1-5.1-7.9-7.4c-0.7-0.6-2-0.5-3-0.7c1.5,3,1.9,5.8,0.4,7.8c-1.5,1.8-4.3,2.5-6.6,3.7
	c1,3.8,0.8,4.4-2.9,6.1c-2.9,1.3-5.9,2.7-8.9,3.7c-2.5,0.8-5.1,1.1-7.6,1.8c-1.7,0.5-3.4,1.2-5,1.8c-0.6,0.2-1.1,0.6-1.6,0.8
	c-4.1,1.1-7.7,3.1-9.6,7.1c-0.9,1.9-2.1,2.2-3.8,1.6c-2.4-0.8-4.6-1.1-7,0.5c-3.8,2.5-7.8,4.6-7.6,10.3c0,1-1.5,2.3-2.6,3
	c-0.5,0.3-1.7-0.7-2.6-1.2c-0.6-0.4-1-1.1-1.6-1.3c-0.6-0.2-1.4,0-1.9,0.3c-0.2,0.1-0.3,0.9-0.2,1.4c0.8,2.7,1.6,5.3,2.6,7.9
	c0.9,2.5,0.1,4-2.7,4.3c-1.1,0.1-2.3,0.2-3.3,0.6c-1.9,0.8-3.4,0.6-4.5-1.1c-2.6,1.9-2.8,1.8-3.8-1.2c-0.6-1.8-1.4-3-3.6-1.7
	c-1.2,0.7-2.6,1.1-3.9,1.5c-1.8,0.6-4,1.1-5-1s-2.6-0.1-2.6-0.1s0.2,2.2,1.1,4.7c-1.8,0.5-2,0.5-3.5,0.9c-0.8,0.2-2.1,0.4-2.2,0.8
	c-0.7,2.6-2.7,3-4.8,3.4c-2.8,0.6-4.4,2.4-4.5,5.3c0,1.5-0.1,2.7-1.8,3.4c-0.7,0.3-1.3,0.8-1.6,1.4l0.6,0.6l0.2,0.9
	c0,0.1,0,0.2,0.1,0.3l0.3,0.9l-0.4,1.3c-0.1,0.4-0.2,0.8-0.3,1.2c-0.8,2.9-1.6,5.7-0.3,8.5c0.4,0.9,0.7,1.8,0.9,2.8
	c0.7,2.5,1.3,4.2,3.3,5.1l2.1,0.9l0,2.3c0,1.5,0.9,2.6,2.3,4c1,1,2.1,2.1,2.6,3.5c0.1,0,0.1,0.1,0.2,0.1c0.1,0,0.3,0.1,0.4,0.1
	c0.5,0.2,0.9,0.3,1.3,0.5c0.8,0.3,1.5,0.6,2.2,0.9c0.4,0.2,0.8,0.4,1.2,0.6l0.1,0.1c0.6,0.3,1.1,0.6,1.6,0.8l0.4,0.2l0,0
	c0,0,0.1,0,0.2,0.1l0.3,0.1c0.5,0.2,1,0.3,1.5,0.4c0.7,0.2,1.4,0.4,2.1,0.6l5,2.5l-2.8,3.9c-0.6,0.8-0.5,2-0.4,3v0.1
	c0,0.2,0,0.5,0,0.8c0,1.8-0.2,3.9-2.3,5.6c-1,0.8-3.3,2.8-3.3,4.1c0,2.7-0.5,6-4.1,8.2l0.7,0.5c1.3,0.1,2.1-0.4,3.2-0.1
	c1.6,0.6,3,1.1,4.3,1.6c1.3,0.5,2.5,0.9,3.8,1.4c0.1-0.1,0.2-0.1,0.3-0.2c0.1-0.1,0.2-0.1,0.3-0.2c2.5-2.1,4.6-2,6.1-1.3
	c0.8-0.5,1.7-1,2.6-1.5c2.4-1.4,4.8-2.9,7.5-4c3.1-1.3,6.2-2,9.3-2.6c0.9-0.2,1.9-0.4,2.8-0.6c2.1-0.5,4.4,0.6,5.6,1.9
	c0.4,0.5,0.9,0.8,2.9,0.8c1.9,0,3.5,0.8,4.6,1.4c0.2,0.1,0.4,0.2,0.6,0.3c1.1,0.5,2.1,1.1,3.3,1.7c0.5,0.3,1.1,0.6,1.7,0.9l0.9,0.5
	l1.2,1.8c0.1,0,0.1,0.1,0.2,0.1c1.3,0.5,1.3,1,0.9,1.5l2.2,3.3l-1.4,2.2c-0.4,0.6-0.8,1.1-1.2,1.5c-0.1,0.1-0.1,0.2-0.2,0.2
	c0.8,1.6,0.4,3.2-1,5c-0.1,0.1-0.2,0.2-0.2,0.3c0,0.1-0.1,0.1-0.1,0.2c0.1,0.2,0.3,0.5,0.4,0.7c1.5,2.4,2,3,3.2,3.1
	c1,0.1,1.9,0.4,2.5,0.7c0.1,0.1,0.3,0.1,0.4,0.1l2.4,0.8l0.3,2.5c0.9,7.7-4.9,12.8-6.6,14.3c-1,0.8-1.7,1.6-1.6,1.6
	c0,0,1.1,0.4,2.2,2.1c0.3,0.4,0.6,0.7,0.7,0.9l1,1.4c0.1,0,0.2,0,0.3,0.1c1.4,0.1,2.4-0.4,3.8-0.5c2.3-0.2,3.8,0.5,3.5,3.2
	c0,0.6,0,1.5,0.4,1.7c3.3,2.4,6.4,5.5,10.1,6.9c3.4,1.4,7.5,1,11.4,1.3c5.3,0.5,10.5,0.5,15.2,4.1c3,2.3,6.8,3.6,10.4,4.9
	c3.1,1.1,5-0.1,6.3-3.2c2.6-6.1,5.2-12.2,7.8-18.3c0.8-1.9,1.7-3.7-1.3-5.4c2.2-1.6,3.9-3,5.8-4.1c1.4-0.8,1.7-1.4,1.4-3.1
	c-0.6-3.5-1.5-7.2,0.7-10.5C357.1,162.8,356.5,161.8,354.8,160.8L354.8,160.8z"/>
</svg>
