<?xml version="1.0" encoding="UTF-8"?>
<svg id="Ebene_1" data-name="Ebene 1" xmlns="http://www.w3.org/2000/svg" viewBox="0 0 566.2 522">
  <defs>
    <style>
      .cls-1 {
        opacity: .81;
      }

      .cls-1, .cls-2, .cls-3, .cls-4 {
        fill: none;
        stroke: #242427;
        stroke-miterlimit: 10;
      }

      .cls-5 {
        stroke-width: 0px;
      }

      .cls-5, .cls-6 {
        fill: #242427;
      }

      .cls-2 {
        stroke-width: 3px;
      }

      .cls-6 {
        font-family: Jost-Regular, Jost;
        font-size: 20px;
        font-variation-settings: 'wght' 400;
      }

      .cls-3 {
        stroke-width: 2px;
      }
    </style>
  </defs>
  <g>
    <path class="cls-3" d="m470.32,253.21c-.59-.24-51.52-4.2-51.52-4.2v82.59l59.04,4.81,3.84-2.33v-80.03l-7.62-21.27-4.83-.39,1.09,20.83Z"/>
    <path class="cls-3" d="m470.18,253.42c.31.34,2.24,1.4,4.93,1.93,4.02.79,5.97-3.35,6.17-3.61"/>
    <line class="cls-3" x1="470.18" y1="259.39" x2="470.18" y2="300.74"/>
    <text class="cls-6" transform="translate(426.8 285.37) rotate(4.66) skewX(4.62)"><tspan x="0" y="0">TIPS</tspan></text>
  </g>
  <g>
    <path class="cls-4" d="m119.92,149.7c1.04,1.38,4.34,3,5.09,6.13,3.2,13.44,3.54,29.32-.46,59.61-3.32,25.22-5.1,37.73-2.74,50.67,1.36,7.49,2.29,13.69,3.2,25.3.5,6.39.32,10.46.52,27.65.09,7.34.68,13.9.75,17.62"/>
    <path class="cls-4" d="m128.3,143.25c-.59,1.6-1.14,3.39-1.6,5.35-1,4.27-.87,8.13-.84,11.28"/>
    <path class="cls-4" d="m133.32,172.76c-.9.64-1.95,1.52-2.93,2.74-2.49,3.07-2.81,6.59-2.98,8.25"/>
    <path class="cls-4" d="m115.87,207.05c1.43,1.23,3.68,3.48,5.38,6.95,1.51,3.08,2.28,5.89,2.44,7.68"/>
    <path class="cls-4" d="m144.24,192.1c-.51,1.24-1.33,3.32-2.22,5.93-1.35,3.99-2.06,6.96-2.35,8.09-1.6,6.28-5.14,15.25-9.85,23.02-1.74,2.87-3.51,5.37-5.61,9.98-1.3,2.85-2.74,5.98-3.26,7.57"/>
    <path class="cls-4" d="m137.3,196.19c.61,1.47.86,2.76,1.27,4.89.68,3.57.01,7.48-.27,9.69"/>
    <path class="cls-4" d="m136.91,214.61c.83-.84,2.28-1.94,3.55-2.84,1.76-1.26,2.7-1.71,4.11-2.84"/>
    <path class="cls-4" d="m132.26,245.74c-.45,1.09-1.24,2.71-2.59,4.4-1.76,2.2-3.21,2.93-4.45,4.16-1.5,1.49-3.55,4.42-3.76,9.68"/>
    <path class="cls-4" d="m104.79,231.55c-.18,2.03-.25,5.14.52,8.79.21,1,.98,4.35,5.02,11.69,2.89,5.25,4.07,6.38,6.91,11.28,2.56,4.42,4.88,8.72,5.96,11.2"/>
    <path class="cls-4" d="m101.92,249.94c.43,1.13,1.38,3.19,3.39,5.09,2.12,2.01,4.37,2.85,5.54,3.2l5.48,3.54"/>
    <circle class="cls-2" cx="128.71" cy="140.85" r="1.23"/>
    <circle class="cls-2" cx="144.57" cy="191.04" r="1.05"/>
    <circle class="cls-2" cx="101.56" cy="248.89" r="1.05"/>
    <circle class="cls-2" cx="114.61" cy="205.99" r="1.05"/>
    <circle class="cls-2" cx="136.91" cy="194.2" r=".83"/>
    <circle class="cls-2" cx="133.32" cy="244.62" r="1.46"/>
    <ellipse class="cls-2" cx="145.92" cy="208.28" rx=".96" ry="1.23" transform="translate(-39.83 34.58) rotate(-11.91)"/>
    <ellipse class="cls-2" cx="104.67" cy="229.73" rx="1.23" ry=".96" transform="translate(-22.6 11.7) rotate(-5.78)"/>
    <circle class="cls-2" cx="118.34" cy="148.47" r="1.23"/>
    <ellipse class="cls-2" cx="134.38" cy="171.23" rx="1.06" ry="1.23"/>
  </g>
  <g>
    <path class="cls-1" d="m48,228.19c.06.79.03,2.06-.45,3.41-2.93,8.33-4.75,13.13-6.74,18.66-2.15,5.99-3.58,11.96-5.97,24.36-1.86,9.69-1.02,12.43-3.31,25.18-1.23,6.88-1.86,7.97-2.35,11.62-.9,6.59-.77,14.31,2.1,25.26"/>
    <path class="cls-4" d="m26.58,309.93c.72-4.18-.33-6.53-1.11-7.73-.66-1.02-1.06-1.08-4.25-4.13-3.08-2.94-3.43-3.57-3.82-3.4-1.22.5-1.26,7.74,2.78,11.36,2.2,1.97,4.29,1.68,6.55,4.32,1.41,1.65,1.74,3.6,2.06,4.89"/>
    <path class="cls-4" d="m28.9,313.92c-2-.2-3.43-.8-4.46-1.43-.53-.32-.57-.42-1.07-.69-.34-.18-2.96-1.58-4.7-.61-.83.46-.61.98-1.95,2.87-1.27,1.78-1.99,2.56-1.99,2.56,0,0,4.81.66,7.95-1.87,1.02-.82,1.69-1.72,2.11-2.4"/>
    <path class="cls-4" d="m31.1,301.09c1.08-1.07,2.65-2.73,4.32-4.93,3.68-4.86,3.59-6.76,6.08-7.84,2.36-1.03,3.61-.18,7.27-1.3,2.06-.63,3.1-1.3,3.1-1.3,0,0-.87,6.26-4.86,8.18-2.68,1.29-5.53,1.15-9.1,1.84-1.37.26-2.6,1-3.23,1.38"/>
    <path class="cls-4" d="m33.83,281.16c1.48-2.51,2.94-4.04,4.02-4.76,1.33-.88,4.74-2.09,7-1.92.98.07,1.54,1.67,3.33,2.81,4.53,2.9,10.34,3.06,10.56,2.18.07-.3-.52-.52-1.75-1.49-3.15-2.5-2.88-4.52-4.68-5.47-1.13-.6-3.76-.76-7.66,1.9"/>
    <path class="cls-4" d="m36.45,277.26c1.35-1.24,3.18-3.04,5.16-5.39,2.61-3.09,3.91-4.63,4.63-6.58,1.57-4.28-.48-5.9,1.45-8.99.39-.62,1.88-1.84,4.86-4.28,3.82-3.13,4.19-3.19,4.44-3.06,1.21.65.76,6.65-2.72,10.06-1.48,1.45-2.78,1.72-5.39,4.25-1.25,1.21-2.55,2.37-3.11,3.1"/>
    <path class="cls-4" d="m35.1,273.32c-.06-1.27-.6-2.94-1.82-3.86-1.18-.9-2.29-.4-4.09-.88-1.97-.53-3.08-1.78-5.16-4.13-2.09-2.36-4.25-6.96-4.25-6.96,0,0,1.35.54,4.47,1.95,4.05,1.83,5.07,1.55,6.45,2.76,1.17,1.02,2.38,3.29,2.48,7.19"/>
    <path class="cls-4" d="m37.82,260.43c.39-1.21-1.21-3.76-2.02-5.05-.79-1.25-2.01-1.17-3.53-2.25-1.66-1.18-2.26-2.75-3.4-5.67-1.14-2.94-1.55-8-1.55-8,0,0,1.08.97,3.51,3.39,3.15,3.13,4.21,3.23,5.08,4.84.74,1.37,1.09,3.91-.18,7.6"/>
    <path class="cls-4" d="m43.54,242.78c-.24-1.96-.42-2.86-.98-4.17-.54-1.27-1.66-1.31-2.88-2.48-1.34-1.28-1.66-2.84-2.27-5.74-.61-2.91-.25-7.8-.25-7.8,0,0,.84,1.03,2.7,3.57,2.42,3.28,3.36,3.47,3.92,5.1.48,1.38.42,3.84-1.27,7.25"/>
    <path class="cls-4" d="m44.84,239.21c.8-.62,1.67-1.66,2.94-3.14,2.77-3.24,2.41-4.74,4.63-6.2,1.71-1.13,2.4-.55,5.2-2.22,1.84-1.09,2.49-1.9,2.72-1.72.46.37-1.26,4.48-4.74,7.04-2.64,1.94-5.75,2.46-7.11,2.56"/>
    <path class="cls-4" d="m48.02,229.15c.38.1.77-1.45,2.27-2.98,2.14-2.18,3.81-3.69,4.82-5.66,1.63-3.19.96-8.99.96-8.99,0,0-1.78,1.37-3.46,3.44-1.28,1.58-3.29,3.11-4.04,5.32-1.25,3.72-1.42,8.64-.55,8.87Z"/>
  </g>
  <g>
    <path class="cls-4" d="m175.92,237.01c-.09,6.39,1.39,11.46,2.47,14.62.77,2.26.95,3.19,4.42,10.8,0,0,1.63,3.57,3.78,8.47,1.17,2.65,4.14,11.05,6.61,26.28.83,5.13,1.65,8.16,2.01,12.98.8,10.58-.21,19.95-1.17,26.52"/>
    <path class="cls-4" d="m187.88,220.21c-.93-.33-2.18,5.04-6.42,9.26-1.14,1.13-3.1,2.8-4.8,5.62-.12.21-.99,1.79-.82,1.91.15.11,1.05-1.02,1.39-1.4,3.68-4.14,7.04-4.17,10.23-8.29,2.24-2.89,2.97-5.99,2.65-6.2-.18-.11-.72.65-1.29.48-.63-.18-.53-1.24-.94-1.39Z"/>
    <path class="cls-4" d="m183.1,227.6c1.53-2.16,1.81-4.35,1.8-5.42,0-2.41-.76-5.66-1.65-5.94-.56-.17-.8.14-1.69-.05-1.18-.25-1.31-1.04-1.88-.89-.74.19-.85,1.65-1.66,1.92-.72.24-1.05-.5-1.48-.29-.59.29,0,2.35.1,4.89.08,2.32-.54,3.28-1,5.52-.41,1.98-.64,5.52.2,9.46"/>
    <path class="cls-4" d="m175.65,236.96s-.89-7.36-1.57-9.83c-2.36-8.52-3.96-8.67-4.41-8.64-.67.04-.56.76-1.82,1.28-1.02.42-2.11-.43-2.88.07-1.12.74-.73,3-1.36,3.92-.49.72-1.58-.27-2.06.36-.67.88,2.06,4.47,5.49,7.17,2.04,1.6,3.28.98,5.45,2.69,2.1,1.66,3.15,2.98,3.15,2.98Z"/>
    <path class="cls-4" d="m164.68,229.19c-.57-.47-1.29-1.23-2.32-1.14-1.07.09-1.36.81-2.44,1.02-1.81.34-3.2-.97-3.47-.68-.33.35,1.38,2.63,4.05,4.92,2.55,2.19,5.18,3.87,7.65,3.66,1.56-.13,2.25-.94,4.91-.97.89,0,1.97.45,2.57.81"/>
    <path class="cls-4" d="m210.89,253.97c-5.68,7.36-9.81,12.42-13.04,16.2-1.05,1.23-2.58,3.49-3.97,6.62-1.74,3.92-2.53,8.16-2.52,10.57"/>
    <path class="cls-4" d="m210.58,254.37c.57-.56.58-1.19.59-2.07.01-1.06-.43-1.82-.58-2.18-1.36-3.22-.47-7.33.44-9.44.1-.23.77-1.76,1.31-1.67.39.07.28.93.92,1.48.85.73,1.88-.07,2.66.48.98.69.84,2.97.12,4.6-.58,1.3-1.24,1.54-2.57,3.27-.99,1.3-1.89,2.94-2.27,3.73"/>
    <path class="cls-4" d="m211.82,251.38c.82-.98,2.16-2.29,3.73-3.75.32-.3,4.76-4.39,5.62-3.68.41.34-.39,1.4.12,2.11.82,1.14,2.97-.04,3.69.93.2.27-.03.21.33,1.03.28.63.56,1.01.65,1.16.58.96-.12,3.32-1.55,4.72-2.86,2.8-8.41,1.56-9.74,1.04-.13-.05-.61-.25-1.28-.39-.99-.2-2.29-.11-2.93-.04"/>
    <path class="cls-4" d="m210.4,254.6c.45.08,1.69.27,2.38.62.8.4,1.3.87,1.43.99.96.86,5.81,4.17,10.46,3.39,3.51-.59,5.92-3.35,5.71-3.78-.13-.26-1.32.29-2.01-.36-.47-.44-.23-.99-.58-1.28-.7-.59-2.6.85-4.04,1.5-1.53.69-4.15.84-7.78-.4"/>
    <path class="cls-4" d="m173.13,269.14c.94,2.5,1.94,4.43,2.71,5.74.78,1.34,1.96,3,4.32,6.33.9,1.27,1.49,2.06,2.13,2.91,1.02,1.33,1.53,1.92,2.65,3.29,2.28,2.8,3.42,4.2,4.32,5.62.62.96,4.41,6.93,5.3,11.9"/>
    <path class="cls-4" d="m168.48,257.81c.16-.54.41-.8.65-.94.53-.3.96.05,1.68-.19.69-.24.72-.71,1.07-.74.88-.09,2.27,2.92,2.58,5.91.15,1.41.08,4.13-1.32,7.29"/>
    <path class="cls-4" d="m173.3,269.23c-.67.02-1.81.13-2.76-.56-4.26-3.1-4.76-11.81-4.28-11.93.15-.04.36.88,1.23,1.16.44.14.74.03.99.02,1.56-.02,3.2,4.03,3.99,7.6.31,1.37.45,2.54.53,3.34"/>
  </g>
  <g>
    <path class="cls-4" d="m225.89,336.69c2.65-8.72,6.03-24.5,1.9-43.08-1.63-7.31-4.07-13.49-6.51-18.44"/>
    <path class="cls-4" d="m221.47,275.58s-.88-1.48-2.29-3.54c-1.3-1.9-2.21-2.08-3.34-3.46-2.15-2.62-2.76-6.71-1.76-7.33,1.06-.65,4.63,2.18,6.32,5.74,1.91,4.03,1.07,8.59,1.07,8.59Z"/>
    <path class="cls-4" d="m225.71,285.4c.44-.84,1.04-1.97,1.74-3.31,2.38-4.55,2.72-5.28,3.03-6.3.71-2.34,1.17-5.79.19-6.22-.75-.33-2.15,1.18-2.78,2-2.72,3.59-1.14,8.59-.61,10.48"/>
    <path class="cls-4" d="m227.18,291.07c-2.42-2.32-4.59-4.99-5.69-6.58-1.54-2.23-2.44-4.06-4.74-5.26-1.47-.77-3.34-1.2-3.61-.74-.4.68,2.71,3.17,3.04,3.44,1.8,1.44,4.7,2.92,5.96,3.48"/>
    <path class="cls-4" d="m228.63,298.37c1.29-2.02,2.3-3.35,3.08-4.35,2.05-2.63,3.05-3.43,4.18-5.57.69-1.31,2.08-4.36,1.35-4.91-.65-.49-2.97,1.01-4.26,2.96-1.69,2.56-1.09,5.98-.9,7.06"/>
    <path class="cls-4" d="m229.72,310.35c-2.87-3.76-4.98-7.3-6.19-9.63-1.15-2.22-1.99-4.2-4.22-5.78-2.15-1.53-4.98-2.25-5.39-1.61-.44.68,1.75,3.05,3.61,4.48,1.7,1.31,2.49,1.36,4.22,2.61,1.8,1.31,2.99,2.74,3.69,3.71"/>
    <path class="cls-4" d="m229.61,315.63c1.19-3.56,3.38-6.15,4.8-7.39,2-1.75,3.36-1.85,4.91-3.87,1.97-2.56,2.55-5.97,1.87-6.35-.7-.39-2.93,2.27-4.09,3.96-1.44,2.09-2.3,4.88-2.7,6.26"/>
    <path class="cls-4" d="m228.69,324.45c-1.47-2.52-2.72-5.29-3.38-6.64-2.35-4.85-3.21-7.76-6.22-10.31-.74-.62-2.31-1.93-3.22-1.43-.69.38-.79,1.69-.57,2.65.4,1.7,1.85,2.44,3.96,4,1.24.92,3.91,2.65,5.8,4.58"/>
    <path class="cls-4" d="m227.7,329.77c1.46-1.91,2.59-3.29,3.54-4.18,1.37-1.29,1.95-1.61,3.31-3,1.86-1.91,1.86-2.42,2.96-3.48,2.66-2.57,6.81-3.56,7.35-2.74.51.77-1.97,3.44-4.11,5.03-2.75,2.03-6.36,2.76-8.21,3.05"/>
  </g>
  <g>
    <path class="cls-4" d="m153.91,284.8c.95,8.1,1.04,15.99.73,20.84-.81,12.68-2.31,22.17-4.99,31.05"/>
    <path class="cls-4" d="m151.21,257.48c-1.91.39-1.62,9.12-1.34,12.66.58,7.33,3.68,14.47,4.07,14.44s.18-.88,1.4-5.55c.92-3.51,1.79-4.61,1.55-8.47-.36-5.77-3.9-13.44-5.68-13.08Z"/>
    <path class="cls-4" d="m153.07,321.13c.44-1.87.97-4.7,2.15-8.08,2.38-6.83,3.55-7.22,5.21-12.33,2.38-7.31.75-8.89,3.53-14.17,1.86-3.54,5.13-7.64,6.81-7.03,1.04.38,1.25,2.49,1.21,3.66-.13,3.15-2.33,4.88-5.89,9.3-1.16,1.44-3.49,4.28-5.28,7.02"/>
    <path class="cls-4" d="m150.42,334.03c.2-1.81,1.12-4.38.76-7.52-.58-5.12-.01-9.58-1.74-14.64-.87-2.54-1.39-2.19-3.93-9.04-.82-2.2-1.42-5.26-1.16-8.21.06-.63.54-1.98,1.42-2.18,1-.22,2.09,1.23,2.49,1.75,1.65,2.19,2.33,5.06,2.35,11.72,0,1.99-.3,4.81-.54,8.03"/>
  </g>
  <g>
    <path class="cls-4" d="m99.62,336.69c-.66-14.17-2.52-27.91-7.46-47.47-1.51-5.97-6.08-12.5-8.69-16.93"/>
    <path class="cls-4" d="m81.91,267.73c-.28.08-1.43-1.67-3.7-5.2-1.06-1.64-1.8-2.83-1.73-4.45.01-.24.08-1.88.83-2.13.96-.31,2.55,1.86,3.35,3.27,2.04,3.63,2.32,8.19,1.26,8.51Z"/>
    <path class="cls-4" d="m82.83,266.07c-.76-.06-.21-3.4.26-4.77.47-1.39,1.1-3.22,2.68-3.82.22-.08,1.1-.41,1.85,0,0,0,.92.32.91,1.22-.03,1.74-4.79,7.43-5.69,7.36Z"/>
    <path class="cls-4" d="m83.07,266.86c-.91-.21,1.25-1.9,2.33-2.55,1.12-.68,2.72-1.62,4.69-1.44.4.04,1.8.16,2.07.91.21.59-.32,1.36-.65,1.56-3.08,1.87-7.49,1.74-8.44,1.52Z"/>
    <path class="cls-4" d="m83.12,267.4c.52-.38,2.26-.36,4.98,1.32,1.99,1.23,2.2,1.76,2.21,2.15.02,1.08-1.47,1.87-1.85,2.07-.34.18-2.16,1.14-3.98.12-1.48-.83-1.65-2-1.75-2.4-.23-.9-.41-2.69.4-3.27Z"/>
    <path class="cls-4" d="m82.28,268.1c-.53,0-2.86.79-4.31,2.19-1.96,1.88-1.66,5.43-1.14,5.75.42.26,4.11-3.06,5.12-4.33l.53-2.56-.19-1.04Z"/>
    <path class="cls-4" d="m81.42,267.97c-.03-.19-1.02,0-2.6-.28-2.1-.38-2.28-1.07-3.88-1.24-.46-.05-2.98-.26-4.06,1.3-.49.7-.76,1.87-.22,2.6.58.79,1.82.7,2.44.65,1.37-.1,2.02-.66,3.43-1.34,2.77-1.33,4.93-1.41,4.88-1.69Z"/>
    <path class="cls-4" d="m80.81,267.26c.2-.44-1.04-1.57-2.73-2.78-1.93-1.38-5.58-3.53-6.36-2.74-.5.51.36,2.03.48,2.17,2.06,2.54,8.22,4.22,8.61,3.34Z"/>
    <path class="cls-4" d="m107.15,297.46c.28,7.09-1.28,11.9-2.84,15.04-1.12,2.25-2.61,4.42-3.71,8.27-.93,3.29-1.45,6.79-1.44,8.75"/>
    <path class="cls-4" d="m107.07,297.23c-.18-.01-.11-.62-.51-2.88-.6-3.36-1.06-3.75-1.22-5.63-.2-2.42.28-5.14.91-5.2.61-.06,1.33,2.4,1.61,3.58,1.22,5.14-.28,10.16-.79,10.12Z"/>
    <path class="cls-4" d="m104.87,311.32c1.62-1.96,3.59-4.09,4.69-5.12.75-.7,1.65-1.49,2.88-1.5.27,0,1.16-.01,1.5.51.56.87-.59,2.93-2.13,4.1-1.83,1.38-4.81,1.95-5.47,2.01-.12.01-.55.04-1.04.28-.26.13-.64.38-.77.48"/>
    <path class="cls-4" d="m104.07,312.99c.28-3.24.12-6.35-.04-8.25-.51-5.78-1.76-7.03-2.6-7.56-.23-.14-1.01-.63-1.37-.37-.75.56,1.26,3.84,2.99,9.58.4,1.31.97,2.36,1.14,3.07"/>
  </g>
  <g>
    <path class="cls-4" d="m78.88,317.8c2.56-1.29,4.53-2.98,5.36-4.61.47-.94.97-2.72.93-3.32-.02-.29-.04-.3-.41-.17-.22.07-.83.4-1.37.74-.58.36-1.44.79-2.1,1.04-1.97.76-3.16.79-7.4.19-3.49-.5-3.87-.49-4.58.15-.96.87-1.61,2.33-2.52,5.69l-.59,2.18.9-.23c.7-.18,1.32-.23,2.81-.23,2.38,0,5.21-.17,6.18-.38.81-.17,1.77-.53,2.81-1.05h0Z"/>
    <path class="cls-4" d="m74.15,284.55c-7.27,4.28-15.38,15.36-10.18,21.78,0,0,16.07-11.86,10.18-21.78Z"/>
    <path class="cls-4" d="m63.94,306.35c-1.15,2.9-2.76,6.75-2.81,11.45-.07,7.81.91,14.98,2.28,18.89"/>
    <path class="cls-4" d="m62.07,331.03c.04-1.41.58-3.59,1.3-5.79.8-2.47,1.94-4.32,2.83-5.53"/>
  </g>
  <line class="cls-3" x1="381.8" y1="336.69" x2="554.85" y2="336.69"/>
  <line class="cls-3" x1="359.11" y1="336.69" x2="368.91" y2="336.69"/>
  <line class="cls-3" x1="-1.15" y1="336.69" x2="346.25" y2="336.69"/>
  <path class="cls-3" d="m383.05,335.47c3.18-.27,7.27-1.95,7.41-2.13,2.29-2.87,4.6-8.8,5.14-10.69,2.3-8.08-12.93-95.47-10.66-96.35,8.19-3.19,12.65-15.96,12.65-15.96,0,0-2.53-5.68-3.73-8.55-2.77-6.63-3.41-11.38-7.43-17.87-.57-.93-.28-8.13-.7-10.53-1.17-6.65-2.95-10.22-4.12-10.24-.32,0-4.11,4.32-6.49,8.57-2,3.56-3.44,6.9-3.73,7.19s-4.95-.59-8.6-.66c-6.05-.12-8.96,1.25-9.43,1.01-.52-.27-.5-2.93-2.58-7.99-.25-.6-2.84-6.75-5.9-6.72-1.3.01-6.06,6.2-8.32,11.64-1.71,4.1-3.51,9.21-3.96,10.29-1.87,4.45-3.17,10.02-5.6,14.36-1.31,2.34-3.28,4.78-3.47,5.61-.17.76,1.8,5.75,5.07,10.88,3.63,5.67,7.56,7.91,9.49,8.73,1.14.48-10.39,57.64-21.63,90.76-.83,2.46,3.18,14.13,10.48,19.85"/>
  <path class="cls-3" d="m340.26,209.36c.66,3.85,3.8,7.16,8.07,6.9,3.5-.22,7.23-2.02,7.59-5.91.48-5.09-2.36-9-7.15-10.32-2.16-.59-4.87-.46-6.2.47-2.26,1.58-3.04,4.59-2.31,8.86Z"/>
  <path class="cls-3" d="m370.09,203.9c-2.59,4.4-1.01,9.98,1.43,11.65,2.42,1.65,8.66,1.71,11.44-2.32,2.78-4.03,1.2-10.94-.95-11.94-1.81-.85-6.54-2.24-10.1.37-.87.63-1.34,1.44-1.81,2.24Z"/>
  <path class="cls-5" d="m391.17,217.4h0c.3-.45.15-1.05-.33-1.3-.6-.31-1.26-.58-1.78-.73-.86-.23-1.74-.36-2.63-.39-.53-.02-.96.42-.93.95h0c.02.45.38.83.84.85.77.02,1.53.13,2.26.33.39.11.94.33,1.43.59.4.21.89.08,1.15-.29Z"/>
  <path class="cls-5" d="m338.8,215.46h0c.03-.5-.35-.94-.85-.95-.93-.01-1.86.04-2.79.17-.83.12-1.64.29-2.45.52-.5.14-.78.66-.62,1.15h0c.16.47.64.7,1.1.57.72-.21,1.46-.36,2.2-.46.83-.12,1.67-.17,2.5-.16.47,0,.86-.37.89-.84Z"/>
  <path class="cls-5" d="m388.01,220.15h0c.34-.39.28-.98-.13-1.31s-.85-.64-1.29-.93c-.33-.22-.68-.43-1.03-.63-.45-.26-1.02-.09-1.25.37h0c-.22.43-.05.95.37,1.19.31.18.62.37.92.57.41.27.81.56,1.19.86s.91.23,1.22-.12Z"/>
  <path class="cls-5" d="m339.95,217.94v-.02c-.08-.51-.57-.85-1.08-.74-.45.1-.89.21-1.33.35-.65.21-1.28.46-1.89.75-.45.22-.61.79-.36,1.23h0c.24.43.75.57,1.18.36.52-.25,1.05-.46,1.6-.64.39-.12.78-.23,1.18-.31.45-.1.75-.53.68-.99Z"/>
  <path class="cls-3" d="m383.72,334.77c.5-2.23-4.01-7.76-9.24-6.35-3.87,1.05-7.37,6.12-6.03,7.8,2.93,3.66,14.55,1.76,15.27-1.46Z"/>
  <path class="cls-3" d="m344.29,334.77c-.5-2.23,4.01-7.76,9.24-6.35,3.87,1.05,7.37,6.12,6.03,7.8-2.93,3.66-14.55,1.76-15.27-1.46Z"/>
  <path class="cls-3" d="m329.45,336.01c.03,6.42.04,16.46-3.34,27.94-4.21,14.3-9.28,21.83-9.83,27.9-2.46,27.2,5.79,38.25,3.86,43.69-.39,1.09-2.07,3.86-4.91,4.56-2.65.66-5.21-.75-5.97-1.4-3.42-2.98-9.83-22.02-7.46-43.25,1.8-16.12,6.77-19.24,10.62-35.88,3.98-17.2,3.93-30.49,3.93-42.39"/>
  <circle class="cls-5" cx="345.99" cy="206.9" r="6"/>
  <circle class="cls-5" cx="375.15" cy="207.79" r="6"/>
</svg>