<?xml version="1.0" encoding="UTF-8"?>
<svg id="Ebene_1" data-name="Ebene 1" xmlns="http://www.w3.org/2000/svg" viewBox="0 0 1068.44 384">
  <defs>
    <style>
      .cls-1 {
        stroke-width: 0px;
      }

      .cls-1, .cls-2, .cls-3 {
        fill: #242427;
      }

      .cls-2, .cls-4 {
        stroke: #242427;
        stroke-miterlimit: 10;
        stroke-width: 2px;
      }

      .cls-3, .cls-5 {
        font-family: Jost-Regular, Jost;
        font-size: 22px;
        font-variation-settings: 'wght' 400;
      }

      .cls-4 {
        fill: none;
      }

      .cls-5 {
        fill: #fff;
      }
    </style>
  </defs>
  <text class="cls-3" transform="translate(36.09 293.94)"><tspan x="0" y="0">10%</tspan></text>
  <text class="cls-3" transform="translate(134.46 293.94)"><tspan x="0" y="0">20%</tspan></text>
  <text class="cls-3" transform="translate(235.79 293.94)"><tspan x="0" y="0">30%</tspan></text>
  <text class="cls-3" transform="translate(759.75 293.94)"><tspan x="0" y="0">80%</tspan></text>
  <text class="cls-3" transform="translate(858.12 293.94)"><tspan x="0" y="0">90%</tspan></text>
  <text class="cls-3" transform="translate(949.68 293.94)"><tspan x="0" y="0">100%</tspan></text>
  <rect class="cls-4" x="4.96" y="260.89" width="100" height="48"/>
  <rect class="cls-4" x="104.96" y="260.89" width="100" height="48"/>
  <rect class="cls-4" x="204.96" y="260.89" width="100" height="48"/>
  <rect class="cls-2" x="309.96" y="260.89" width="100" height="48"/>
  <rect class="cls-2" x="413.96" y="260.89" width="100" height="48"/>
  <rect class="cls-2" x="517.96" y="260.89" width="100" height="48"/>
  <rect class="cls-2" x="621.96" y="260.89" width="100" height="48"/>
  <rect class="cls-4" x="726.96" y="260.89" width="100" height="48"/>
  <rect class="cls-4" x="826.96" y="260.89" width="100" height="48"/>
  <rect class="cls-4" x="926.96" y="260.89" width="100" height="48"/>
  <text class="cls-5" transform="translate(339.9 293.94)"><tspan x="0" y="0">40%</tspan></text>
  <text class="cls-5" transform="translate(442.12 293.94)"><tspan x="0" y="0">50%</tspan></text>
  <text class="cls-5" transform="translate(545.68 293.94)"><tspan x="0" y="0">60%</tspan></text>
  <text class="cls-5" transform="translate(652.35 293.94)"><tspan x="0" y="0">70%</tspan></text>
  <g>
    <circle class="cls-4" cx="934.17" cy="86.92" r="3.42"/>
    <ellipse class="cls-4" cx="919.62" cy="71.54" rx="7.1" ry="5.86" transform="translate(143.72 570.34) rotate(-37.18)"/>
    <rect class="cls-4" x="753.33" y="10.66" width="155.27" height="46.96" rx="2" ry="2"/>
  </g>
  <text class="cls-3" transform="translate(798.45 42.18)"><tspan x="0" y="0">too less</tspan></text>
  <g>
    <path class="cls-4" d="m969.79,259.14c-3.56-.3-9.92-1.3-10.08-1.51-2.56-3.21-5.4-11-6-13.11-2.57-9.04,14.47-106.85,11.93-107.84-9.16-3.57-14.16-17.86-14.16-17.86,0,0,2.83-6.36,4.17-9.57,3.1-7.42,3.82-12.74,8.32-20,.64-1.04.31-9.1.79-11.78,1.31-7.44,3.3-11.44,4.62-11.46.36,0,4.6,4.83,7.27,9.59,2.24,3.99,3.85,7.72,4.17,8.05s5.54-.66,9.62-.74c6.78-.13,10.03,1.4,10.56,1.13.58-.3.56-3.28,2.89-8.94.28-.67,3.18-7.56,6.6-7.53,1.45.01,6.78,6.94,9.31,13.03,1.91,4.58,3.92,10.31,4.43,11.52,2.09,4.98,3.55,11.21,6.27,16.07,1.47,2.62,3.67,5.35,3.88,6.28.19.85-2.01,6.44-5.68,12.18-4.06,6.35-8.46,8.85-10.62,9.77-1.28.54,11.63,64.52,24.21,101.58.93,2.75-3.64,13.16-10.36,20.62-.84.93-14.96,1.37-26.81,1.43"/>
    <path class="cls-4" d="m1015.64,117.73c-.74,4.31-4.26,8.02-9.03,7.72-3.92-.24-8.09-2.26-8.5-6.61-.54-5.69,4.2-10.54,8.01-11.55,2.43-.65,5.45-.52,6.94.52,2.53,1.77,3.4,5.14,2.59,9.92Z"/>
    <path class="cls-4" d="m982.26,111.61c2.9,4.92,1.13,11.17-1.6,13.04-2.7,1.85-9.69,1.91-12.8-2.6-3.11-4.51-1.34-12.24,1.07-13.37,2.02-.95,7.31-2.5,11.31.42.97.71,1.5,1.61,2.03,2.51Z"/>
    <path class="cls-1" d="m959.18,127.34h0c-.34-.5-.17-1.18.37-1.46.67-.35,1.41-.65,1.99-.81.96-.26,1.95-.41,2.95-.44.59-.02,1.07.47,1.04,1.06h0c-.03.51-.43.93-.94.95-.86.02-1.71.15-2.53.37-.44.12-1.05.37-1.6.66-.45.23-1,.09-1.29-.33Z"/>
    <path class="cls-1" d="m1017.6,124.31h0c.03-.56.52-1,1.08-.94,1.04.11,2.07.31,3.07.58.9.24,1.79.55,2.65.91.53.23.78.84.52,1.36h0c-.24.5-.81.69-1.3.48-.77-.33-1.57-.6-2.38-.82-.9-.24-1.83-.42-2.76-.52-.53-.06-.9-.53-.87-1.06Z"/>
    <path class="cls-1" d="m962.72,130.43h0c-.38-.44-.31-1.1.15-1.46s.95-.72,1.45-1.04c.37-.25.76-.48,1.15-.71.5-.29,1.14-.1,1.4.42h0c.24.49.05,1.06-.42,1.33-.35.2-.7.41-1.03.63-.46.3-.9.62-1.33.97s-1.01.26-1.36-.14Z"/>
    <path class="cls-1" d="m1015.95,126.66v-.02c.1-.57.67-.94,1.23-.8.5.12.99.26,1.47.43.72.25,1.42.55,2.09.9.5.26.66.9.36,1.39v.02c-.29.46-.87.6-1.34.35-.57-.29-1.16-.55-1.77-.76-.43-.15-.87-.28-1.31-.38-.5-.12-.82-.62-.73-1.13Z"/>
    <path class="cls-4" d="m967,256.69c-.56-2.49,4.49-8.68,10.34-7.1,4.34,1.17,8.25,6.85,6.75,8.73-3.28,4.1-16.28,1.97-17.09-1.63Z"/>
    <path class="cls-4" d="m1011.13,256.69c.56-2.49-4.49-8.68-10.34-7.1-4.34,1.17-8.25,6.85-6.75,8.73,3.28,4.1,16.28,1.97,17.09-1.63Z"/>
    <path class="cls-4" d="m1027.75,259.47c-.04,7.18-.05,18.42,3.74,31.28,4.71,16.01,10.38,24.43,11,31.23,2.75,30.44-6.48,42.81-4.32,48.9.43,1.22,2.32,4.32,5.5,5.11,2.97.74,5.83-.83,6.68-1.57,3.83-3.34,11-24.65,8.35-48.41-2.01-18.04-7.57-21.53-11.88-40.16-4.45-19.25-4.4-34.12-4.4-47.44"/>
    <circle class="cls-1" cx="1005.28" cy="117.78" r="6.71"/>
    <path class="cls-1" d="m980.09,117.56c0,3.71-3,6.71-6.71,6.71-3.71,0-6.71-3-6.71-6.71,0-3.71,3-6.71,6.71-6.71s6.71,3,6.71,6.71Z"/>
  </g>
</svg>